<svg width="518" height="540" fill="none" xmlns="http://www.w3.org/2000/svg"><path d="m58.745 267.154-16.664.343-8.459.153c-2.832 0-5.677 0-8.51.063h-.558v-.559l-.077-14.212v-.648h.635l16.817.076c5.613 0 11.214.14 16.816.203h.355v.343c0 2.401-.114 4.801-.165 7.176l-.19 7.062Zm0 0-.178-7.189c0-2.362-.14-4.699-.165-7.023l.343.343c-5.602.063-11.203.203-16.816.203l-16.817.089.635-.635v14.212l-.571-.571h8.319l8.357.152 16.893.419ZM39.985 285.075l-16.663.343-8.46.153c-2.832 0-5.677 0-8.509.063h-.559v-.559l-.076-14.212v-.61h.635l16.816.076c5.601 0 11.215.14 16.816.204h.356v.343c0 2.4-.102 4.801-.165 7.176l-.19 7.023Zm0 0-.178-7.201c-.063-2.363-.14-4.7-.165-7.024l.343.343c-5.6.064-11.215.203-16.816.203l-16.816.127.635-.622-.063 14.212-.572-.571c2.769 0 5.538 0 8.32.063l8.356.153 16.956.317ZM485.486 433.982l-16.664.343-8.459.152c-2.832 0-5.677 0-8.51.064h-.559v-.559l-.076-14.213v-.647h.635l16.816.076c5.614 0 11.215.14 16.817.203h.355v.343c0 2.401-.114 4.801-.178 7.176l-.177 7.062Zm0 0-.178-7.189c0-2.362-.14-4.699-.165-7.024l.343.343c-5.602.064-11.203.204-16.817.204l-16.816.088.635-.635-.063 14.213-.572-.572c2.769 0 5.538 0 8.319.064l8.358.152 16.956.356ZM466.726 451.878l-16.664.342-8.471.153h-9.056v-.495l-.063-14.213v-.648h.635l16.816.077c5.601 0 11.215.139 16.816.203h.356v.343c0 2.4-.102 4.801-.166 7.176l-.203 7.062Zm0 0-.178-7.189c-.063-2.363-.139-4.7-.165-7.024l.343.343c-5.601 0-11.215.203-16.816.203l-16.816.089.635-.635-.064 14.213-.571-.572c2.769 0 5.538 0 8.319.064l8.345.152 16.968.356ZM510.989 285.075l-16.676.343-8.459.153c-2.82 0-5.665 0-8.497.063h-.572v-.559l-.063-14.212v-.61h.635l16.816.076c5.601 0 11.215.14 16.816.204h.343v.343c0 2.4-.102 4.801-.165 7.176l-.178 7.023Zm0 0-.178-7.188c0-2.363-.152-4.7-.165-7.024l.343.343c-5.601.063-11.215.203-16.816.203l-16.816.076.635-.622-.076 14.212-.559-.571c2.769 0 5.538 0 8.306.063l8.358.153 16.968.355ZM492.23 32.998l-16.677.356-8.458.14c-2.82 0-5.665 0-8.497.076h-.521V18.151h.648l16.816.076c5.601 0 11.202.153 16.816.216h.343v.33c0 2.414-.115 4.814-.165 7.177l-.305 7.049Zm0 0-.178-7.175c-.064-2.376-.152-4.713-.178-7.037l.356.343c-5.614 0-11.215.203-16.816.216l-16.816.076.635-.635-.077 14.212-.558-.571c2.768 0 5.524 0 8.306.076l8.357.14 16.969.355ZM510.989 50.92l-16.676.355-8.459.14c-2.82 0-5.665 0-8.497.076h-.572v-.571l-.063-14.213v-.635h.635l16.816.076c5.601 0 11.215.153 16.816.216h.343v.343c0 2.413-.102 4.814-.165 7.176l-.178 7.037Zm0 0-.178-7.176c0-2.376-.152-4.712-.165-7.037l.343.343c-5.601 0-11.215.203-16.816.216l-16.816.076.635-.635-.076 14.213-.559-.572c2.769 0 5.538 0 8.306.076l8.358.14 16.968.356ZM58.745 32.998l-16.664.356-8.459.14c-2.832 0-5.677 0-8.51.076h-.558v-.572l-.077-14.225v-.635h.635l16.817.077c5.613 0 11.214.152 16.816.215h.355v.343c0 2.414-.114 4.814-.165 7.177l-.19 7.049Zm0 0-.178-7.175c0-2.376-.14-4.713-.165-7.037l.343.343c-5.602 0-11.203.203-16.816.216l-16.817.076.635-.635v14.212l-.571-.571c2.769 0 5.538 0 8.319.076l8.357.14 16.893.355ZM240.039 189.297l-16.664.343-8.459.152h-9.068v-.558l-.064-14.213v-.648h.635l16.816.077c5.601 0 11.215.139 16.816.203h.356v.343c0 2.4-.102 4.801-.165 7.176l-.203 7.125Zm0 0-.178-7.189c-.064-2.362-.14-4.699-.165-7.023l.343.343c-5.601 0-11.215.203-16.816.203l-16.817.089.635-.635v14.212l-.571-.571c2.769 0 5.538 0 8.319.076l8.319.165 16.931.33ZM67.902 34.281H1.4v80.664h66.502V34.281Z" fill="#EBEBEB"/><path d="M60.307 41.635h-51.3v65.944h51.3V41.635Z" fill="#fff"/><path d="M11.014 41.635H9.007v65.944h2.007V41.635ZM69.909 34.281h-2.007v80.664h2.007V34.281ZM38.283 50.73H26.192v36.045h12.091V50.729Z" fill="#DBDBDB"/><path d="M53.804 93.557H20.286v-18.9h33.518v18.9Zm-32.248-1.27h30.978v-16.36H21.556v16.36ZM102.157 137.566H35.654v80.664h66.503v-80.664Z" fill="#EBEBEB"/><path d="M94.549 144.932h-51.3v65.944h51.3v-65.944Z" fill="#fff"/><path d="M45.256 144.932H43.25v65.944h2.007v-65.944ZM104.163 137.566h-2.006v80.664h2.006v-80.664Z" fill="#DBDBDB"/><path d="M74.303 161.977H63.94v26.202h10.364v-26.202Z" fill="#EBEBEB"/><path d="M85.849 196.587H56.725v-19.33h29.11l.014 19.33Zm-27.854-1.27h26.57v-16.79h-26.57v16.79Z" fill="#DBDBDB"/><path d="M7.14 505.438h237.623l4.941-97.506H2.2l4.94 97.506Z" fill="#EBEBEB"/><path d="M233.51 452.563h-99.309l-1.867-33.848H235.72l-2.21 33.848Zm-98.216-1.193h97.086l2.019-31.448H133.566l1.728 31.448ZM231.669 491.505h-93.657l-1.512-30.546h97.048l-1.879 30.546Zm-92.476-1.194h91.345l1.766-28.158h-94.508l1.397 28.158Z" fill="#DBDBDB"/><path d="M193.401 439.316h-16.689l-1.055-8.166h18.798l-1.054 8.166Zm-15.635-1.206h14.58l.737-5.767h-16.067l.75 5.767ZM193.401 480.315h-16.689l-1.055-8.167h18.798l-1.054 8.167Zm-15.635-1.206h14.58l.737-5.767h-16.067l.75 5.767ZM116.648 452.563H17.352l-1.905-33.848H118.82l-2.172 33.848Zm-98.204-1.193h97.087l2.019-31.448H16.717l1.727 31.448ZM114.82 491.505H21.162l-1.524-30.546h97.049l-1.867 30.546Zm-92.476-1.194h91.345l1.766-28.158H20.946l1.397 28.158Z" fill="#DBDBDB"/><path d="M76.551 439.316H59.85l-1.055-8.166h18.81l-1.054 8.166Zm-15.647-1.206h14.593l.737-5.767H60.167l.737 5.767ZM76.551 480.315H59.85l-1.055-8.116h18.81l-1.054 8.116Zm-15.647-1.206h14.593l.737-5.767H60.167l.737 5.767Z" fill="#DBDBDB"/><path d="m28.453 505.438-1.486 10.618-3.01 21.35h-5.868v-31.968h10.364Z" fill="#EBEBEB"/><path d="m28.453 505.438-1.486 10.618h-8.878v-10.618h10.364Z" fill="#DBDBDB"/><path d="m223.451 505.438 1.499 10.618 2.997 21.35h5.868v-31.968h-10.364Z" fill="#EBEBEB"/><path d="m223.451 505.438 1.499 10.618h8.865v-10.618h-10.364Z" fill="#DBDBDB"/><path d="m1.4 537.406 64.317-.317 64.318-.115 128.636-.203 128.636.203 64.318.115 64.318.317-64.318.305-64.318.114-128.636.203-128.636-.203-64.317-.114-64.318-.305Z" fill="#002"/><path d="M409.673 47.008H107.682c-7.162 0-12.968 5.806-12.968 12.967v464.463c0 7.162 5.806 12.968 12.968 12.968h301.991c7.162 0 12.968-5.806 12.968-12.968V59.976c0-7.162-5.806-12.968-12.968-12.968Z" fill="#002"/><path d="M294.259 68.193v-1.93c0-.877-.711-1.588-1.587-1.588h-68.23c-.877 0-1.588.71-1.588 1.588v1.93c0 .877.711 1.588 1.588 1.588h68.23c.876 0 1.587-.711 1.587-1.588ZM258.57 530.116a9.236 9.236 0 0 1-6.53-15.763 9.238 9.238 0 0 1 10.063-2.002 9.232 9.232 0 0 1 5.7 8.531 9.245 9.245 0 0 1-9.233 9.234Z" fill="#002"/><path d="M408.784 81.63H108.723v422.106h300.061V81.631Z" fill="#fff"/><path d="M408.784 81.63H108.723v8.079h300.061V81.63Z" fill="#CF89EE"/><path d="M116.331 85.67a1.543 1.543 0 0 1-.94 1.428 1.537 1.537 0 1 1-.597-2.953 1.523 1.523 0 0 1 1.537 1.525Z" fill="#C7C7C7"/><path d="M122.567 85.67a1.533 1.533 0 0 1-.943 1.43 1.535 1.535 0 0 1-2.011-2.012 1.54 1.54 0 0 1 2.508-.496c.286.286.446.673.446 1.078Z" fill="#fff"/><path d="M128.803 85.67a1.523 1.523 0 1 1-3.048 0 1.527 1.527 0 0 1 1.524-1.525 1.526 1.526 0 0 1 1.524 1.525Z" fill="#455A64"/><path d="M408.797 89.709H108.723v17.857h300.074V89.708Z" fill="#C7C7C7"/><path d="M408.797 107.566H108.723v13.311h300.074v-13.311Z" fill="#EBEBEB"/><path d="M122.034 503.736v-382.91h-13.311v382.91h13.311Z" fill="#EBEBEB"/><path d="M118.325 117.498h-5.246a.649.649 0 0 1-.647-.66v-5.22a.664.664 0 0 1 .203-.47.55.55 0 0 1 .457-.178h3.734a.624.624 0 0 1 .458.191l1.498 1.498a.65.65 0 0 1 .191.457v3.671a.654.654 0 0 1-.385.657.642.642 0 0 1-.263.054Zm-5.246-6.134a.239.239 0 0 0-.165.076.258.258 0 0 0-.076.178v5.22a.253.253 0 0 0 .241.254h5.246a.238.238 0 0 0 .095-.02.248.248 0 0 0 .132-.138.241.241 0 0 0 .014-.096v-3.671a.235.235 0 0 0-.063-.178l-1.499-1.498a.3.3 0 0 0-.178 0h-3.81l.063-.127Z" fill="#C7C7C7"/><path d="M117.398 117.498h-3.404v-2.629h3.404v2.629Zm-2.998-.406h2.629v-1.791H114.4v1.791ZM116.902 113.866h-2.908v-2.883h2.908v2.883Zm-2.54-.394h2.083v-2.057h-2.095l.012 2.057ZM133.312 117.549a.112.112 0 0 1-.089 0l-1.994-1.067-1.994 1.067a.192.192 0 0 1-.203 0 .159.159 0 0 1-.071-.082.16.16 0 0 1-.005-.108l.368-2.223-1.613-1.562a.217.217 0 0 1 0-.28.185.185 0 0 1 .127 0l2.223-.33.99-2.019a.215.215 0 0 1 .293 0h.076l.99 1.981 2.223.33a.185.185 0 0 1 .099.046.183.183 0 0 1 .054.094.182.182 0 0 1 0 .203l-1.601 1.562.381 2.223a.22.22 0 0 1-.019.107.227.227 0 0 1-.07.084.135.135 0 0 1-.086.014.134.134 0 0 1-.079-.04Zm-2.083-1.499h.089l1.727.915-.33-1.918a.21.21 0 0 1 0-.178l1.397-1.359-1.93-.279a.204.204 0 0 1-.153-.115l-.863-1.74-.864 1.74a.205.205 0 0 1-.152.115l-1.918.279 1.397 1.359a.21.21 0 0 1 0 .178l-.33 1.918 1.727-.915h.203ZM145.531 116.317a1.585 1.585 0 0 1-1.564-1.498 1.585 1.585 0 0 1 1.386-1.664 1.927 1.927 0 0 1 1.851-1.688 1.931 1.931 0 0 1 1.959 1.561 1.95 1.95 0 0 1 1.613.698 1.673 1.673 0 0 1 0 1.969 1.463 1.463 0 0 1-1.905.393.215.215 0 0 1 0-.279.215.215 0 0 1 .279-.063 1.08 1.08 0 0 0 1.372-.293 1.27 1.27 0 0 0 0-1.473 1.508 1.508 0 0 0-1.448-.533.234.234 0 0 1-.165 0 .239.239 0 0 1-.076-.165 1.536 1.536 0 0 0-3.061-.216 1.288 1.288 0 0 0 0 .304.222.222 0 0 1-.064.166.202.202 0 0 1-.139.063 1.183 1.183 0 0 0-1.146 1.664c.112.248.306.45.549.571.258.136.557.168.838.089a.217.217 0 0 1 .254.14.217.217 0 0 1-.14.254 2.15 2.15 0 0 1-.393 0Z" fill="#C7C7C7"/><path d="M148.414 115.187a.192.192 0 0 1-.085-.022.223.223 0 0 1-.068-.054l-.838-1.029-.864 1.029a.19.19 0 0 1-.058.068.191.191 0 0 1-.082.037.183.183 0 0 1-.09-.002.185.185 0 0 1-.08-.041.2.2 0 0 1-.052-.247.205.205 0 0 1 .058-.07l1.016-1.27a.195.195 0 0 1 .067-.054.199.199 0 0 1 .172-.005.168.168 0 0 1 .065.059l1.016 1.27a.203.203 0 0 1 0 .28.229.229 0 0 1-.177.051Z" fill="#C7C7C7"/><path d="M147.423 117.066a.203.203 0 0 1-.203-.19v-3.112c0-.054.021-.105.059-.143a.2.2 0 0 1 .144-.06.2.2 0 0 1 .144.06.201.201 0 0 1 .059.143v3.112a.203.203 0 0 1-.203.19ZM208.451 117.575a3.614 3.614 0 0 1-3.338-2.242 3.604 3.604 0 0 1 .811-3.939 3.605 3.605 0 0 1 5.558.616 3.607 3.607 0 0 1-3.031 5.565Zm0-6.808a3.225 3.225 0 1 0 3.226 3.264 3.231 3.231 0 0 0-.945-2.281 3.23 3.23 0 0 0-2.281-.945v-.038Z" fill="#C7C7C7"/><path d="M209.836 114.107a.229.229 0 0 1-.127 0l-1.27-1.118-1.27 1.118a.203.203 0 0 1-.28 0 .214.214 0 0 1 0-.292l1.385-1.27a.215.215 0 0 1 .266 0l1.397 1.27a.214.214 0 0 1 0 .292.21.21 0 0 1-.152 0h.051Z" fill="#C7C7C7"/><path d="M208.451 116.012a.204.204 0 0 1-.203-.203v-3.048a.204.204 0 0 1 .203-.203.204.204 0 0 1 .204.203v3.035c0 .052-.02.102-.055.14a.207.207 0 0 1-.136.064l-.013.012ZM296.19 117.752a3.606 3.606 0 1 1 1.38-6.939 3.606 3.606 0 0 1-1.38 6.939Zm0-6.807a3.22 3.22 0 0 0-2.99 1.982 3.228 3.228 0 0 0 2.343 4.407 3.23 3.23 0 0 0 3.316-1.37 3.226 3.226 0 0 0-2.669-5.019Z" fill="#C7C7C7"/><path d="M297.6 114.475h-2.82a.23.23 0 0 1-.178-.241.218.218 0 0 1 .178-.165h2.82a.176.176 0 0 1 .074.025.186.186 0 0 1 .091.125.21.21 0 0 1 0 .079.21.21 0 0 1-.053.116.198.198 0 0 1-.112.061ZM310.059 117.752a3.608 3.608 0 1 1-.026-7.216 3.608 3.608 0 0 1 .026 7.216Zm0-6.807a3.22 3.22 0 0 0-2.989 1.982 3.229 3.229 0 0 0 2.343 4.407 3.226 3.226 0 1 0 .646-6.389Z" fill="#C7C7C7"/><path d="M311.456 114.475h-2.806a.196.196 0 0 1-.152-.041.2.2 0 0 1-.077-.136.176.176 0 0 1 0-.079.174.174 0 0 1 .032-.072.185.185 0 0 1 .133-.078h2.883a.213.213 0 0 1 .153.036.21.21 0 0 1 .088.129.228.228 0 0 1-.177.241h-.077Z" fill="#C7C7C7"/><path d="M310.059 115.822a.204.204 0 0 1-.203-.203v-2.858a.204.204 0 0 1 .197-.254.203.203 0 0 1 .197.254v2.883a.204.204 0 0 1-.191.178ZM223.108 117.575a3.613 3.613 0 0 1-3.332-2.227 3.6 3.6 0 0 1-.205-2.084 3.599 3.599 0 0 1 2.834-2.834 3.6 3.6 0 0 1 3.702 1.533c.397.594.608 1.291.608 2.004a3.622 3.622 0 0 1-3.607 3.608Zm0-6.808a3.226 3.226 0 1 0 3.176 3.264 3.23 3.23 0 0 0-3.214-3.226l.038-.038Z" fill="#C7C7C7"/><path d="M223.108 115.479a.273.273 0 0 1-.139 0l-1.398-1.27a.207.207 0 0 1 0-.28.22.22 0 0 1 .147-.057.22.22 0 0 1 .146.057l1.27 1.118 1.27-1.118a.207.207 0 0 1 .139-.055c.052 0 .102.02.14.055a.203.203 0 0 1 0 .28l-1.397 1.27a.285.285 0 0 1-.178 0Z" fill="#C7C7C7"/><path d="M223.108 115.365a.202.202 0 0 1-.143-.06.2.2 0 0 1-.06-.144v-3.048a.202.202 0 0 1 .025-.075.187.187 0 0 1 .204-.09.226.226 0 0 1 .114.055.22.22 0 0 1 .064.11v3.036a.215.215 0 0 1-.059.148.222.222 0 0 1-.145.068ZM166.703 112.52h-6.985a.328.328 0 0 0-.23.097.318.318 0 0 0-.088.233v3.035a.33.33 0 0 0 .33.331h1.359v-.394h-1.27v-2.896h6.821v2.896h-1.131v.394h1.27a.342.342 0 0 0 .126-.03.34.34 0 0 0 .172-.186.325.325 0 0 0 .02-.127v-3.023a.324.324 0 0 0-.113-.266.314.314 0 0 0-.281-.064Z" fill="#C7C7C7"/><path d="M165.573 110.602h-4.56a.33.33 0 0 0-.33.33v1.651a.34.34 0 0 0 .33.343h4.56a.343.343 0 0 0 .33-.343v-1.651a.33.33 0 0 0-.33-.33Zm-4.484 1.917v-1.511h4.408v1.511h-4.408ZM165.941 113.472h-.597v.394h.597v-.394ZM165.573 114.526h-4.56a.13.13 0 0 0-.09.037.128.128 0 0 0-.037.09v2.629a.138.138 0 0 0 .127.127h4.56a.128.128 0 0 0 .09-.037.13.13 0 0 0 .037-.09v-2.629a.112.112 0 0 0-.006-.051.108.108 0 0 0-.027-.043.108.108 0 0 0-.043-.027c-.017-.006-.034-.008-.051-.006Zm-.076 2.68h-4.408v-2.54h4.408v2.54Z" fill="#C7C7C7"/><path d="M165.573 114.323h-4.56a.33.33 0 0 0-.33.33v2.629a.323.323 0 0 0 .097.234c.03.031.067.055.107.071.04.017.083.026.126.026h4.56a.323.323 0 0 0 .126-.026.336.336 0 0 0 .204-.305v-2.629a.33.33 0 0 0-.33-.33Zm-.076 2.883h-4.408v-2.54h4.408v2.54Z" fill="#C7C7C7"/><path d="M159.806 112.926v2.896h.877v-1.169a.322.322 0 0 1 .097-.233.326.326 0 0 1 .233-.097h4.56a.326.326 0 0 1 .305.204c.016.04.025.083.025.126v1.169h.724v-2.896h-6.821Zm6.135.94h-.597v-.394h.61l-.013.394ZM347.362 119.861c-.076 0-.14-2.541-.14-5.716 0-3.175 0-5.715.14-5.715s.14 2.54.14 5.715-.064 5.716-.14 5.716ZM258.671 119.861c-.076 0-.14-2.541-.14-5.716 0-3.175.064-5.715.14-5.715.076 0 .14 2.54.14 5.715s-.064 5.716-.14 5.716ZM109.523 120.826c0-.076 2.54-.14 5.716-.14 3.175 0 5.715.064 5.715.14 0 .076-2.54.14-5.715.14-3.176 0-5.716-.077-5.716-.14ZM176.724 115.834a2.542 2.542 0 0 1-2.491-3.035 2.54 2.54 0 1 1 2.491 3.035Zm0-4.762a2.198 2.198 0 0 0-1.549 3.755 2.193 2.193 0 0 0 2.399.468 2.197 2.197 0 0 0 1.347-2.039 2.192 2.192 0 0 0-1.357-2.022 2.177 2.177 0 0 0-.84-.162Z" fill="#C7C7C7"/><path d="m178.437 114.907-.269.27 2.363 2.362.269-.27-2.363-2.362ZM175.949 113.256a.295.295 0 0 1-.058.245.292.292 0 0 1-.102.079.286.286 0 0 1-.251 0 .289.289 0 0 1-.16-.324c0-.074.029-.145.082-.197a.275.275 0 0 1 .197-.082.278.278 0 0 1 .292.279ZM177.016 113.256a.295.295 0 0 1-.058.245.292.292 0 0 1-.102.079.286.286 0 0 1-.251 0 .289.289 0 0 1-.16-.324c0-.074.029-.145.082-.197a.275.275 0 0 1 .197-.082.278.278 0 0 1 .292.279ZM178.083 113.256a.281.281 0 0 1-.002.129.287.287 0 0 1-.158.195.287.287 0 0 1-.251 0 .292.292 0 0 1-.159-.195.295.295 0 0 1-.001-.129c0-.074.029-.145.082-.197a.275.275 0 0 1 .197-.082.278.278 0 0 1 .292.279ZM239.95 113.104l-.508.292h-.064a.125.125 0 0 1-.051.01.124.124 0 0 1-.05-.01.108.108 0 0 1-.026-.038.114.114 0 0 1-.01-.045c0-.015.004-.03.01-.045a.096.096 0 0 1 .026-.037l.685-.419a.127.127 0 0 1 .166 0 .222.222 0 0 1 0 .089v3.264a.129.129 0 0 1-.127.127.124.124 0 0 1-.082-.042.128.128 0 0 1-.033-.085l.064-3.061ZM244.23 116.127l1.397-3.29a.115.115 0 0 1 .153 0 .121.121 0 0 1 .047.023.11.11 0 0 1 .042.092.11.11 0 0 1-.013.05l-1.397 3.29a.103.103 0 0 1-.102.076.15.15 0 0 1-.051.015.12.12 0 0 1-.053-.006.133.133 0 0 1-.095-.117.135.135 0 0 1 .031-.1.12.12 0 0 1 .041-.033ZM248.371 113.104l-.508.292h-.064a.125.125 0 0 1-.051.01.129.129 0 0 1-.051-.01.113.113 0 0 1-.035-.083.108.108 0 0 1 .035-.082l.674-.419a.137.137 0 0 1 .177 0 .191.191 0 0 1 0 .089v3.264a.128.128 0 0 1-.037.09.13.13 0 0 1-.09.037.124.124 0 0 1-.081-.042.128.128 0 0 1-.033-.085l.064-3.061ZM243.417 117.054h-6.757v.317h6.757v-.317ZM323.573 112.329l-.495.305a.142.142 0 0 1-.114 0 .126.126 0 0 1 0-.165l.685-.419a.137.137 0 0 1 .083-.027c.03 0 .059.009.083.027a.133.133 0 0 1 .009.044c0 .015-.004.03-.009.044v3.265a.128.128 0 0 1-.115.127.142.142 0 0 1-.127-.127v-3.074ZM324.716 113.752a2.274 2.274 0 0 1 .331-1.271 1.112 1.112 0 0 1 .889-.533 1.088 1.088 0 0 1 .889.533c.237.381.356.823.343 1.271.015.448-.104.89-.343 1.27a1.073 1.073 0 0 1-.889.546 1.098 1.098 0 0 1-.889-.546 2.223 2.223 0 0 1-.331-1.27Zm.242 0c-.009.39.097.774.304 1.104a.845.845 0 0 0 .674.42.873.873 0 0 0 .685-.42 2.147 2.147 0 0 0 0-2.209.842.842 0 0 0-.685-.42.805.805 0 0 0-.674.42 1.994 1.994 0 0 0-.266 1.105h-.038ZM328.361 113.752a2.274 2.274 0 0 1 .331-1.271 1.117 1.117 0 0 1 .889-.533 1.092 1.092 0 0 1 .889.533c.237.381.356.823.343 1.271.015.448-.104.89-.343 1.27a1.078 1.078 0 0 1-.373.389 1.085 1.085 0 0 1-.516.157 1.098 1.098 0 0 1-.889-.546 2.223 2.223 0 0 1-.331-1.27Zm.242 0c-.009.39.097.774.305 1.104a.842.842 0 0 0 .673.42.88.88 0 0 0 .686-.42 2.156 2.156 0 0 0 0-2.209.845.845 0 0 0-.686-.42.802.802 0 0 0-.673.42c-.208.33-.314.714-.305 1.105ZM331.918 112.85a.789.789 0 0 1 1.105-.818.79.79 0 0 1 .457.818.845.845 0 0 1-.204.621.858.858 0 0 1-.583.293.841.841 0 0 1-.775-.914Zm1.27 0c0-.394-.241-.686-.521-.686-.279 0-.521.305-.521.686 0 .406.242.698.534.698.292 0 .533-.317.533-.698h-.025Zm-.813 2.54 2.464-3.366a.125.125 0 0 1 .051-.01c.017 0 .035.003.051.01a.11.11 0 0 1 .08.034.11.11 0 0 1 .034.08l-2.477 3.366a.098.098 0 0 1-.044.01.099.099 0 0 1-.045-.01.085.085 0 0 1-.042-.004.095.095 0 0 1-.038-.021.094.094 0 0 1-.025-.034.106.106 0 0 1-.009-.042s-.038-.013.025-.026l-.025.013Zm1.575-.711a.835.835 0 0 1 .787-.902.851.851 0 0 1 .317.087.847.847 0 0 1 .458.815.853.853 0 0 1-.466.826c-.1.05-.209.08-.321.088a.83.83 0 0 1-.75-.927l-.025.013Zm1.27 0c0-.394-.241-.686-.521-.686-.279 0-.508.305-.508.686 0 .406.229.698.521.698.292 0 .559-.33.559-.711l-.051.013ZM339.805 117.054h-17.883v.317h17.883v-.317ZM342.053 113.358h1.524l-.762.762-.762-.762ZM269.797 114.971l.864 2.083-.864.355-.864-2.095-1.435 1.105v-5.881l4.128 4.153-1.829.28ZM282.231 117.841a3.234 3.234 0 0 1-1.27-.241 2.229 2.229 0 0 1-1.003-.851l-1.105-1.664-.178-.279a.789.789 0 0 1-.114-.585.657.657 0 0 1 1.016-.393.922.922 0 0 1 .229.216l.228.304v-2.857a.604.604 0 0 1 .327-.536.594.594 0 0 1 .626.053.375.375 0 0 1 .127.152v-.228a.596.596 0 0 1 .305-.521.608.608 0 0 1 .889.483.395.395 0 0 1 .089-.115.674.674 0 0 1 .431-.165.613.613 0 0 1 .572.521v.559a.587.587 0 0 1 .254-.203.556.556 0 0 1 .622.076.594.594 0 0 1 .216.483v3.67c.004.325-.065.646-.203.94a1.781 1.781 0 0 1-1.181 1.029c-.284.089-.579.14-.877.152Zm-2.984-3.81h-.14a.315.315 0 0 0-.126.096.313.313 0 0 0-.065.145.4.4 0 0 0 .064.33l.178.28 1.105 1.689c.199.326.497.58.851.724a2.88 2.88 0 0 0 1.956.114 1.498 1.498 0 0 0 1.003-.838c.113-.251.17-.524.165-.8V112.1a.242.242 0 0 0-.101-.228.255.255 0 0 0-.293 0 .242.242 0 0 0-.165.241v1.74a.366.366 0 0 1-.076.241.468.468 0 0 1-.19 0c-.127 0-.267-.076-.267-.304v-2.541a.28.28 0 0 0-.267-.241.323.323 0 0 0-.203.076.306.306 0 0 0-.089.204v2.349a.264.264 0 0 1-.082.168.264.264 0 0 1-.351.013.257.257 0 0 1-.088-.168.222.222 0 0 1 0-.089v-2.54a.279.279 0 0 0-.273-.267.25.25 0 0 0-.133.038.27.27 0 0 0-.109.1.271.271 0 0 0-.043.141v2.642a.265.265 0 0 1-.441.162.281.281 0 0 1-.093-.162v-2.184a.25.25 0 0 0-.114-.216.27.27 0 0 0-.242 0 .276.276 0 0 0-.19.279v3.417h-.216l-.076-.076-.14-.191-.368-.495a.479.479 0 0 0-.14-.14.418.418 0 0 0-.241-.038ZM118.401 132.701h-3.518a.713.713 0 0 1-.711-.711v-4.826a.711.711 0 0 1 .711-.712h2.54a.7.7 0 0 1 .47.178l1.27 1.131v4.229a.699.699 0 0 1-.226.522.71.71 0 0 1-.536.189Zm-3.518-5.855a.318.318 0 0 0-.317.318v4.826a.32.32 0 0 0 .092.229c.059.062.14.098.225.101h3.518a.329.329 0 0 0 .318-.33v-4.064l-1.131-1.016a.333.333 0 0 0-.216-.076l-2.489.012Z" fill="#C7C7C7"/><path d="M116.42 134.594h-3.468a.723.723 0 0 1-.711-.724v-4.598a.713.713 0 0 1 .711-.698h1.423v.406h-1.423a.305.305 0 0 0-.293.185.31.31 0 0 0-.024.12v4.61a.316.316 0 0 0 .317.318h3.468a.332.332 0 0 0 .33-.318v-1.371h.381v1.371a.71.71 0 0 1-.711.699ZM118.922 128.154h-1.461v-1.32h.318v1.003h1.143v.317ZM117.83 148.895a.262.262 0 0 1-.104-.018.265.265 0 0 1-.087-.058l-1.994-1.55-1.93 1.55a.294.294 0 0 1-.343 0 .313.313 0 0 1-.131-.113.307.307 0 0 1-.047-.166v-6.084h4.953v6.084a.307.307 0 0 1-.047.166.313.313 0 0 1-.131.113.252.252 0 0 1-.139.076Zm-2.185-2.019a.369.369 0 0 1 .203 0l1.918 1.498v-5.55H113.6v5.538l1.867-1.474a.254.254 0 0 1 .178-.012ZM114.286 163.882a2.016 2.016 0 0 1-1.854-1.238 2.008 2.008 0 0 1-.153-.768 1.98 1.98 0 0 1 .546-1.397l3.049-3.201a1.5 1.5 0 0 1 1.079-.47 1.564 1.564 0 0 1 1.563 1.537 1.591 1.591 0 0 1-.47 1.105l-2.896 2.769a.829.829 0 0 1-1.143 0 .806.806 0 0 1-.175-.897.778.778 0 0 1 .187-.259l2.299-2.261.28.267-2.312 2.273a.434.434 0 0 0-.127.292.399.399 0 0 0 .127.305.427.427 0 0 0 .299.125.424.424 0 0 0 .298-.125l2.896-2.794c.218-.22.341-.516.343-.826a1.124 1.124 0 0 0-.356-.825 1.099 1.099 0 0 0-.825-.318 1.101 1.101 0 0 0-.801.356l-3.01 3.213a1.63 1.63 0 0 0 .017 2.282 1.623 1.623 0 0 0 2.282.017l3.366-3.251.267.279-3.366 3.252a1.994 1.994 0 0 1-1.41.558Z" fill="#C7C7C7"/><path d="M224.048 94.484h-46.257v13.082h46.257V94.484Z" fill="#EBEBEB"/><path d="M185.907 101.025c5.004-.254 10.008-.279 15.013-.317 5.004-.039 10.021 0 15.025.317-5.004.267-10.021.28-15.025.318-5.005.038-10.009-.013-15.013-.318Z" fill="#C7C7C7"/><path d="M143.092 101.025c4.649-.254 9.297-.279 13.971-.317 4.674-.039 9.297 0 13.971.317-4.648.267-9.297.28-13.971.318-4.674.038-9.386-.013-13.971-.318ZM113.334 101.025c3.569-.254 7.15-.279 10.732-.317 3.582-.039 7.151 0 10.72.317-3.569.267-7.151.28-10.72.318-3.569.038-7.163-.013-10.732-.318Z" fill="#EBEBEB"/><path d="M214.751 151.88h-63.569v4.306h63.569v-4.306Z" fill="#455A64"/><path d="m150.636 175.872 13.489-.241 13.488-.127 26.965-.115 26.976.115 13.489.127 13.488.241-13.488.229-13.489.127-26.976.114-26.965-.114-13.488-.127-13.489-.229ZM328.603 175.872c4.267-.203 8.535-.292 12.802-.368 4.268-.076 8.536-.076 12.803-.115 4.268-.038 8.535 0 12.803.115 4.267.114 8.535.165 12.802.368-4.267.191-8.535.28-12.802.356-4.268.076-8.535.076-12.803.114-4.267.038-8.535 0-12.803-.114-4.267-.115-8.535-.165-12.802-.356ZM266.978 175.872c4.267-.203 8.535-.292 12.802-.368 4.268-.076 8.535-.076 12.803-.115 4.267-.038 8.535 0 12.802.115 4.268.114 8.535.165 12.803.368-4.268.191-8.535.28-12.803.356-4.267.076-8.535.076-12.802.114-4.268.038-8.535 0-12.803-.114-4.267-.115-8.535-.165-12.802-.356ZM150.636 189.97c6.351-.19 12.701-.279 19.052-.355l19.051-.115 19.052.115c6.35.076 12.701.165 19.051.355-6.35.203-12.701.292-19.051.369l-19.052.114-19.051-.114c-6.389-.102-12.714-.102-19.052-.369ZM240.039 189.97c4.382-.19 8.763-.279 13.133-.355 4.369-.077 8.763-.077 13.132-.115 4.37-.038 8.764 0 13.146.115 4.382.114 8.751.165 13.133.355-4.382.203-8.764.292-13.133.369-4.369.076-8.764.076-13.146.114-4.381.038-8.751 0-13.132-.114-4.382-.115-8.751-.102-13.133-.369ZM150.636 204.081l12.866-.229 12.867-.127 25.745-.114 25.732.102 12.866.139 12.866.229-12.866.241-12.866.127-25.732.115-25.745-.115-12.867-.127-12.866-.241ZM265.225 204.081c3.454-.19 6.922-.279 10.389-.356 3.468-.076 6.935-.076 10.402-.114 3.468-.038 6.922 0 10.39.102 3.467.101 6.935.178 10.389.368-3.454.203-6.922.292-10.389.368-3.468.077-6.935.077-10.39.115-3.454.038-6.934 0-10.402-.115-3.467-.114-6.935-.165-10.389-.368ZM318.188 204.081c2.934-.19 5.881-.279 8.814-.356 2.934-.076 5.881-.076 8.828-.114 2.946-.038 5.88 0 8.814.102 2.934.101 5.881.178 8.827.368-2.946.203-5.88.292-8.827.368-2.946.077-5.88.077-8.814.115-2.934.038-5.881 0-8.828-.115-2.946-.114-5.88-.165-8.814-.368ZM150.636 218.179c3.265-.19 6.529-.292 9.793-.368 3.264-.076 6.528-.064 9.792-.102 3.264-.038 6.529 0 9.793.102 3.264.101 6.528.165 9.792.368-3.264.203-6.528.292-9.792.368-3.264.077-6.529.077-9.793.115-3.264.038-6.528 0-9.792-.115-3.264-.114-6.528-.152-9.793-.368ZM202.114 218.179c6.426-.19 12.866-.292 19.305-.368l19.306-.102 19.318.102c6.426.076 12.866.165 19.305.368-6.439.203-12.879.292-19.305.368l-19.318.115-19.306-.115c-6.439-.063-12.879-.152-19.305-.368ZM289.484 218.192l11.291-.229 11.291-.139 22.582-.102 22.583.102 11.291.139 11.291.229-11.291.228-11.291.14-22.583.102-22.582-.102-11.291-.14-11.291-.228ZM150.636 232.303c5.64-.204 11.279-.292 16.918-.369l16.918-.114 16.918.114c5.651.077 11.291.165 16.93.369-5.639.19-11.279.292-16.93.368l-16.918.102-16.918-.102c-5.639-.076-11.278-.178-16.918-.368ZM226.677 232.303c3.214-.204 6.414-.292 9.628-.369 3.213-.076 6.426-.063 9.64-.114 3.213-.051 6.426 0 9.64.114 3.213.115 6.426.165 9.64.369-3.214.19-6.427.292-9.64.368-3.214.076-6.427.064-9.64.102-3.214.038-6.427 0-9.64-.102-3.214-.102-6.414-.178-9.628-.368ZM150.636 260.524c5.894-.203 11.8-.292 17.706-.368l17.781-.114 17.705.114c5.906.076 11.812.165 17.718.368-5.906.191-11.812.28-17.718.356l-17.705.114-17.781-.114c-5.906-.076-11.812-.165-17.706-.356ZM233.587 260.524c5.347-.203 10.694-.292 16.041-.368l16.041-.114 16.054.114c5.348.076 10.695.165 16.042.368-5.347.191-10.694.28-16.042.356l-16.054.114-16.041-.114c-5.347-.076-10.694-.165-16.041-.356ZM310.25 260.524c2.464-.203 4.928-.292 7.392-.368 2.464-.076 4.928-.102 7.392-.114 2.464-.013 4.928 0 7.392.114 2.464.114 4.928.165 7.392.368-2.464.191-4.928.28-7.392.356-2.464.076-4.928.102-7.392.114-2.464.013-4.928 0-7.392-.114-2.464-.114-4.928-.165-7.392-.356ZM347.502 260.524c2.693-.203 5.385-.292 8.078-.368 2.692-.076 5.385-.076 8.078-.114 2.692-.038 5.385 0 8.077.114 2.693.114 5.386.165 8.078.368-2.692.191-5.385.28-8.078.356-2.692.076-5.385.076-8.077.114-2.693.038-5.386 0-8.078-.114-2.693-.114-5.385-.165-8.078-.356ZM150.636 274.622c3.353-.19 6.719-.279 10.085-.355 3.366-.076 6.731-.076 10.161-.115 3.429-.038 6.731 0 10.097.115 3.366.114 6.719.165 10.085.355-3.366.204-6.732.293-10.085.369-3.353.076-6.731.076-10.097.114-3.366.038-6.732 0-10.161-.114-3.429-.115-6.732-.165-10.085-.369ZM200.577 274.622c6.35-.19 12.764-.279 19.153-.355l19.14-.115 19.153.115c6.351.076 12.765.165 19.141.355-6.351.204-12.765.293-19.141.369l-19.153.114-19.14-.114c-6.389-.076-12.765-.165-19.153-.369ZM287.299 274.622c3.81-.19 7.697-.279 11.545-.355 3.849-.076 7.697-.076 11.546-.115 3.848-.038 7.696 0 11.545.115 3.848.114 7.697.165 11.545.355-3.81.204-7.697.293-11.545.369-3.849.076-7.697.076-11.545.114-3.849.038-7.697 0-11.546-.114-3.848-.115-7.696-.165-11.545-.369ZM339.818 274.622c2.616-.19 5.233-.279 7.849-.355 2.616-.076 5.233-.102 7.849-.115 2.617-.012 5.233 0 7.849.115 2.617.114 5.233.165 7.85.355-2.617.204-5.233.293-7.85.369-2.616.076-5.232.101-7.849.114-2.616.013-5.233 0-7.849-.114-2.616-.115-5.169-.165-7.849-.369ZM150.636 288.733l12.866-.228 12.867-.14 25.745-.102 25.732.102 12.866.14 12.866.228-12.866.242-12.866.127-25.732.114-25.745-.114-12.867-.127-12.866-.242ZM265.225 288.733c6.579-.19 13.158-.279 19.737-.355l19.738-.115 19.75.102c6.579.076 13.158.178 19.737.368-6.579.203-13.158.292-19.737.369l-19.75.114-19.738-.114c-6.579-.077-13.158-.166-19.737-.369ZM150.636 302.844c5.64-.19 11.279-.292 16.918-.368l16.918-.102 16.918.102c5.651.076 11.291.165 16.93.368-5.639.203-11.279.292-16.93.368l-16.918.115-16.918-.051c-5.639-.14-11.278-.229-16.918-.432ZM228.455 302.844l10.644-.229 10.656-.139 21.3-.102 21.299.102 10.656.139 10.644.229-10.644.229-10.656.139-21.299.115-21.3-.115-10.656-.139-10.644-.229ZM323.903 302.844c4.662-.19 9.323-.292 13.972-.368 4.648-.077 9.309-.064 13.971-.102l13.971.102c4.661.076 9.322.165 13.971.368-4.661.203-9.323.292-13.971.368l-13.971.115c-4.662 0-9.323 0-13.971-.115-4.649-.114-9.348-.165-13.972-.368ZM150.636 316.955l14.314-.229 14.327-.139 28.654-.115 28.64.115 14.327.126 14.327.242-14.327.228-14.327.14-28.64.102-28.654-.102-14.327-.14-14.314-.228ZM150.636 345.176l11.253-.241 11.266-.127 22.519-.114 22.532.114 11.253.127 11.266.241-11.266.229-11.253.127-22.532.114-22.519-.114-11.266-.127-11.253-.229ZM252.105 345.189c5.321-.203 10.643-.292 15.965-.368l15.965-.114 15.952.114c5.322.076 10.644.165 15.966.368-5.322.191-10.644.28-15.966.356l-15.952.114-15.965-.114c-5.322-.089-10.669-.178-15.965-.356ZM328.603 345.189c3.429-.203 6.871-.292 10.3-.368 3.43-.076 6.872-.076 10.301-.115 3.429-.038 6.871 0 10.3.115 3.43.114 6.872.165 10.301.368-3.429.191-6.871.28-10.301.356-3.429.076-6.871.076-10.3.114-3.429.038-6.871 0-10.301-.114-3.429-.115-6.871-.178-10.3-.356ZM150.636 359.275c5.309-.191 10.618-.28 15.927-.356l15.94-.114 15.94.114c5.309.076 10.618.165 15.927.356-5.309.203-10.618.292-15.927.368l-15.94.114-15.94-.114c-5.309-.076-10.618-.165-15.927-.368ZM225.356 359.275c2.909-.191 5.817-.28 8.726-.356 2.908-.076 5.817-.076 8.726-.114 2.908-.038 5.829 0 8.738.114 2.908.114 5.817.165 8.725.356-2.908.203-5.817.292-8.725.368-2.909.076-5.83.076-8.738.114-2.909.038-5.818 0-8.726-.114-2.909-.114-5.817-.165-8.726-.368ZM271.055 359.275c6.35-.191 12.701-.28 19.115-.356l19.115-.114 19.051.114c6.351.076 12.701.165 19.115.356-6.35.203-12.701.292-19.115.368l-19.051.114-19.115-.114c-6.376-.076-12.74-.165-19.115-.368ZM150.636 373.385c3.925-.19 7.85-.279 11.774-.355 3.925-.076 7.862-.076 11.787-.115 3.924-.038 7.849 0 11.786.102 3.938.102 7.849.178 11.774.368-3.925.204-7.849.292-11.774.369-3.924.076-7.862.076-11.786.114-3.925.038-7.85 0-11.787-.114-3.937-.115-7.887-.165-11.774-.369ZM207.931 373.385l10.58-.228 10.579-.127 21.16-.115 21.173.102 10.58.14 10.58.228-10.58.242-10.58.127-21.173.114-21.16-.114-10.579-.14-10.58-.229ZM306.795 373.385c4.344-.19 8.675-.279 13.006-.355 4.331-.076 8.675-.076 13.006-.115 4.331-.038 8.675 0 13.006.102 4.331.102 8.674.178 13.006.368-4.332.204-8.663.292-13.006.369-4.344.076-8.662.076-13.006.114-4.344.038-8.662 0-13.006-.114-4.344-.115-8.662-.165-13.006-.369ZM150.636 387.496l11.177-.228 11.164-.14 22.354-.102 22.354.102 11.177.14 11.177.228-11.177.229-11.177.14-22.354.114-22.354-.114-11.164-.14-11.177-.229ZM250.25 387.496c4.827-.19 9.653-.292 14.479-.368 4.827-.076 9.641 0 14.467-.102l14.466.102c4.827.076 9.653.165 14.48.368-4.827.203-9.653.292-14.48.369l-14.466.114c-4.826 0-9.653 0-14.467-.114-4.813-.115-9.652-.166-14.479-.369ZM345.889 387.496c-2.185.203-4.357.292-6.541.369-2.185.076-4.357.101-6.541.114-2.185.013-4.357 0-6.541-.114-2.185-.115-4.357-.166-6.529-.369 2.172-.203 4.357-.292 6.529-.368 2.172-.076 4.369-.102 6.541-.102 2.172 0 4.369 0 6.541.102 2.172.101 4.42.178 6.541.368ZM150.636 415.718c6.059-.203 12.13-.292 18.201-.369l18.213-.114 18.201.114c6.071.077 12.142.166 18.2.369-6.058.19-12.129.292-18.2.368l-18.201.102-18.213-.115c-6.071-.076-12.142-.165-18.201-.355ZM236.66 415.718c3.125-.203 6.236-.292 9.348-.369 3.112-.076 6.236-.076 9.361-.114 3.124-.038 6.236 0 9.348.114 3.112.115 6.236.166 9.348.369-3.112.19-6.236.292-9.348.368-3.112.076-6.236.064-9.348.102-3.112.038-6.236 0-9.361-.115-3.124-.114-6.223-.165-9.348-.355ZM150.636 429.829c4.636-.204 9.272-.292 13.908-.369 4.636-.076 9.272-.076 13.971-.114l13.971.114c4.636.077 9.272.165 13.908.369-4.636.19-9.272.279-13.908.355l-13.971.115c-4.636 0-9.272 0-13.971-.115-4.699-.114-9.272-.165-13.908-.355ZM215.577 429.829c3.162-.204 6.35-.293 9.5-.369 3.15-.076 6.35-.076 9.5-.114 3.15-.038 6.351 0 9.501.114 3.149.115 6.35.165 9.5.369-3.163.19-6.351.279-9.5.355-3.15.076-6.351.076-9.501.115-3.15.038-6.35 0-9.5-.115-3.15-.114-6.338-.165-9.5-.355ZM263.929 429.829c5.982-.204 11.965-.292 17.947-.369l17.959-.114 17.947.114c5.982.077 11.964.165 17.946.369-5.982.19-11.964.279-17.946.355l-17.947.115-17.959-.115c-5.982-.076-11.965-.165-17.947-.355ZM344.187 429.829c2.972-.204 5.931-.293 8.891-.369 2.959-.076 5.944-.076 8.89-.114 2.947-.038 5.944 0 8.891.114 2.947.115 5.944.165 8.891.369-2.972.19-5.944.279-8.891.355-2.947.076-5.931.076-8.891.115-2.959.038-5.931 0-8.89-.115-2.96-.114-5.919-.165-8.891-.355ZM150.636 443.927c3.379-.191 6.77-.28 10.161-.356 3.391-.076 6.77-.076 10.161-.114 3.391-.038 6.77 0 10.161.114s6.782.165 10.161.356c-3.379.203-6.77.292-10.161.368-3.391.076-6.77.076-10.161.114-3.391.038-6.77 0-10.161-.114s-6.782-.165-10.161-.368ZM200.577 443.927l12.167-.229 12.168-.127 24.348-.114 24.335.114 12.167.127 12.168.229-12.168.241-12.167.127-24.335.114-24.348-.114-12.168-.127-12.167-.241ZM306.795 443.927c3.048-.191 6.084-.28 9.132-.356 3.048-.076 6.084-.076 9.12-.114 3.035-.038 6.083 0 9.132.114 3.048.114 6.083.165 9.132.356-3.049.203-6.084.292-9.132.368-3.049.076-6.084.076-9.132.114-3.049.038-6.084 0-9.12-.114-3.035-.114-6.084-.165-9.132-.368ZM353.255 443.927c2.223-.191 4.433-.28 6.643-.356 2.21-.076 4.42-.102 6.63-.114 2.21-.013 4.433 0 6.643.114s4.42.165 6.642.356c-2.222.203-4.432.292-6.642.368-2.21.076-4.42.102-6.643.114-2.223.013-4.42 0-6.63-.114s-4.42-.165-6.643-.368ZM150.636 458.038c6.059-.191 12.13-.28 18.201-.356l18.213-.114 18.201.101c6.071.076 12.142.178 18.2.369-6.058.203-12.129.292-18.2.368l-18.201.114-18.213-.114c-6.071-.076-12.142-.178-18.201-.368ZM232.304 458.038c3.48-.191 6.96-.28 10.44-.356 3.48-.076 6.96-.076 10.44-.114 3.48-.038 6.96 0 10.44.101 3.481.102 6.961.178 10.441.369-3.48.203-6.96.292-10.441.368-3.48.076-6.96.076-10.44.114-3.48.038-6.96 0-10.44-.114-3.48-.114-6.935-.178-10.44-.368ZM284.035 458.038l11.964-.229 11.977-.14 23.942-.101 23.941.101 11.977.14 11.977.229-11.977.241-11.977.127-23.941.114-23.942-.114-11.977-.127-11.964-.241ZM150.636 472.199c4.776-.19 9.539-.292 14.314-.368 4.776-.076 9.552-.064 14.327-.102l14.327.102c4.775.076 9.551.165 14.327.368-4.776.203-9.552.292-14.327.368l-14.327.115c-4.775 0-9.551 0-14.327-.115-4.775-.114-9.538-.215-14.314-.368ZM215.577 472.199c4.127-.19 8.268-.292 12.408-.368 4.141-.076 8.269-.064 12.409-.102 4.141-.038 8.281 0 12.409.102 4.128.101 8.281.165 12.422.368-4.141.203-8.281.292-12.422.368-4.14.077-8.268.077-12.409.115-4.14.038-8.268 0-12.409-.115-4.14-.114-8.281-.215-12.408-.368ZM324.056 472.199c-4.039.203-8.078.292-12.117.368-4.039.077-8.065.064-12.104.115-4.039.051-8.078 0-12.117-.115-4.039-.114-8.065-.165-12.104-.368 4.039-.203 8.078-.292 12.104-.368 4.026-.076 8.078-.064 12.117-.102 4.039-.038 8.065 0 12.104.102 4.039.101 8.078.127 12.117.368ZM303.912 189.97c6.351-.19 12.701-.279 18.975-.355l18.976-.115 18.975.115c6.35.076 12.701.165 18.975.355-6.35.203-12.701.292-18.975.369l-18.975.114-18.976-.114c-6.325-.102-12.65-.102-18.975-.369ZM285.889 415.718l11.749-.229 11.736-.14 23.471-.114 23.484.114 11.736.127 11.748.242-11.748.228-11.736.14-23.484.102-23.471-.115-11.736-.127-11.749-.228Z" fill="#A6A6A6"/><path opacity=".5" d="M319.001 170.906h-61.397v9.919h61.397v-9.919ZM272.121 467.182h-58.615v9.92h58.615v-9.92ZM310.39 382.53H150.052v9.92H310.39v-9.92ZM379.762 297.878H222.88v9.919h156.882v-9.919Z" fill="#CF89EE"/><path d="M510.037 159.208H405.088v34.814h104.949v-34.814Z" fill="#fff"/><path d="m510.037 194.047-104.949.267h-.266v-35.398h.317l104.948.127h.191v.191l-.127 17.426-.114 17.387Zm0 0-.191-34.813.191.19-104.949.127.318-.317v34.813l-.267-.266 104.898.266Z" fill="#002"/><path d="M417.434 170.563h-2.058l-.406 1.092a.471.471 0 0 1-.445.293.325.325 0 0 1-.152 0 .473.473 0 0 1-.28-.61l1.867-4.966a.485.485 0 0 1 .712-.215c.079.053.14.127.177.215l1.855 4.94a.479.479 0 0 1-.121.514.47.47 0 0 1-.159.096.28.28 0 0 1-.152 0 .445.445 0 0 1-.432-.292l-.406-1.067Zm-.343-.94-.686-1.816-.686 1.816h1.372ZM423.263 169.484v2.019a.44.44 0 0 1-.13.314.441.441 0 0 1-.628 0 .441.441 0 0 1-.131-.314v-2.019a.85.85 0 0 0-.262-.607.844.844 0 0 0-.614-.244.838.838 0 0 0-.851.851v2.019a.266.266 0 0 1 0 .089.456.456 0 0 1-.778.207.453.453 0 0 1-.124-.296v-3.328a.463.463 0 0 1 .106-.275.463.463 0 0 1 .546-.12.458.458 0 0 1 .212.205 1.747 1.747 0 0 1 2.428.611c.157.27.24.576.239.888h-.013ZM428.445 169.484v2.019a.44.44 0 0 1-.13.314.441.441 0 0 1-.628 0 .441.441 0 0 1-.131-.314v-2.019a.85.85 0 0 0-.262-.607.844.844 0 0 0-.614-.244.838.838 0 0 0-.851.851v2.019a.266.266 0 0 1 0 .089.456.456 0 0 1-.778.207.453.453 0 0 1-.124-.296v-3.328a.463.463 0 0 1 .106-.275.463.463 0 0 1 .546-.12.458.458 0 0 1 .212.205 1.747 1.747 0 0 1 2.428.611c.157.27.24.576.239.888h-.013ZM430.49 171.338a2.107 2.107 0 0 1-.584-1.486 2.161 2.161 0 0 1 .584-1.486 2 2 0 0 1 1.448-.635 1.86 1.86 0 0 1 1.41.635 2.098 2.098 0 0 1 .597 1.549 2.081 2.081 0 0 1-.597 1.486 1.869 1.869 0 0 1-1.41.635 1.987 1.987 0 0 1-1.448-.698Zm.343-1.486c-.016.324.093.642.305.889a1.12 1.12 0 0 0 .8.317 1.13 1.13 0 0 0 .788-.317 1.363 1.363 0 0 0 0-1.778 1.278 1.278 0 0 0-.788-.318c-.295.01-.578.122-.8.318a1.281 1.281 0 0 0-.305.952v-.063ZM437.12 168.188a.484.484 0 0 1-.47.47h-.165v2.35a.458.458 0 0 1 .329.146.482.482 0 0 1 .128.336.457.457 0 0 1-.457.458.94.94 0 0 1-.94-.94v-2.363h-.33a.467.467 0 0 1-.323-.793.455.455 0 0 1 .323-.134h.254v-1.27a.453.453 0 0 1 .291-.426.457.457 0 0 1 .179-.031.469.469 0 0 1 .47.457v1.27h.203a.478.478 0 0 1 .469.281c.026.06.039.124.039.189ZM441.921 169.915v1.651a.445.445 0 0 1-.876.089 1.978 1.978 0 0 1-2.54-.254 2.144 2.144 0 0 1-.572-1.486 2.107 2.107 0 0 1 .572-1.486c.181-.199.403-.359.65-.469.247-.109.515-.165.785-.166.406.004.8.132 1.13.369a.443.443 0 0 1 .432-.369.458.458 0 0 1 .445.458l-.026 1.663Zm-.889 0a1.266 1.266 0 0 0-.33-.876 1.063 1.063 0 0 0-.788-.343 1.014 1.014 0 0 0-.787.343 1.345 1.345 0 0 0 0 1.74 1.04 1.04 0 0 0 .787.33c.147.002.293-.027.428-.084a1.06 1.06 0 0 0 .36-.246c.215-.236.332-.544.33-.864ZM445.49 168.188a.481.481 0 0 1-.482.47h-.204v2.35a.458.458 0 0 1 .329.146.485.485 0 0 1 .098.155.49.49 0 0 1-.103.505.461.461 0 0 1-.324.134.94.94 0 0 1-.94-.94v-2.363h-.241a.468.468 0 0 1-.331-.798.451.451 0 0 1 .331-.129h.241v-1.27a.473.473 0 0 1 .649-.426.45.45 0 0 1 .291.426v1.27h.204a.481.481 0 0 1 .482.47ZM447.916 166.664a.456.456 0 0 1-.914 0v-.165a.459.459 0 0 1 .457-.457.46.46 0 0 1 .457.457v.165Zm0 1.537v3.289a.457.457 0 1 1-.914 0v-3.289a.457.457 0 1 1 .914 0ZM449.732 171.338a2.113 2.113 0 0 1-.546-1.423 2.165 2.165 0 0 1 .584-1.486 1.977 1.977 0 0 1 1.448-.635 1.86 1.86 0 0 1 1.41.635c.387.398.601.932.597 1.486a2.063 2.063 0 0 1-.597 1.486 1.869 1.869 0 0 1-1.41.635 1.974 1.974 0 0 1-1.486-.698Zm.331-1.486c-.007.323.101.638.304.889.22.207.511.321.813.317a1.078 1.078 0 0 0 .775-.317 1.358 1.358 0 0 0 0-1.778 1.195 1.195 0 0 0-.775-.318c-.3.007-.588.119-.813.318a1.37 1.37 0 0 0-.304.952v-.063ZM458.153 169.484v2.019a.444.444 0 0 1-.889 0v-2.019a.869.869 0 0 0-.545-.791.87.87 0 0 0-.331-.06.835.835 0 0 0-.851.851v2.019a.266.266 0 0 1 0 .089.475.475 0 0 1-.458.356.443.443 0 0 1-.444-.445v-3.328a.444.444 0 0 1 .444-.444.463.463 0 0 1 .42.254 1.75 1.75 0 0 1 2.667 1.499h-.013ZM413.433 178.616l6.947-.115 6.948-.076 13.882-.051 13.895.051 6.935.076 6.947.115-6.947.114-6.935.076-13.895.051-13.882-.051-6.948-.076-6.947-.114ZM473.318 178.616c2.185-.102 4.382-.153 6.579-.191 2.197-.038 4.395 0 6.592 0h6.592c2.197 0 4.394.089 6.592.191-2.198.101-4.395.152-6.592.19-2.197.038-4.395 0-6.592 0h-6.592c-2.197 0-4.369-.089-6.579-.19ZM413.433 185.881c3.264-.102 6.528-.153 9.792-.191h19.573c3.264 0 6.528.089 9.792.191-3.264.101-6.528.152-9.792.19h-19.573a509.657 509.657 0 0 1-9.792-.19ZM459.474 185.881c2.248-.102 4.509-.153 6.757-.191 2.248-.038 4.509 0 6.757 0h6.769c2.261 0 4.509.089 6.757.191-2.248.101-4.508.152-6.757.19-2.248.038-4.508 0-6.769 0h-6.757c-2.248 0-4.509-.089-6.757-.19Z" fill="#002"/><path d="M515.943 159.208a5.911 5.911 0 0 1-3.646 5.457 5.907 5.907 0 1 1 3.646-5.457Z" fill="#CF89EE"/><path d="m512.986 157.248-.979-.979-4.904 4.903.979.979 4.904-4.903Z" fill="#fff"/><path d="m511.997 162.145.979-.979-4.903-4.904-.979.979 4.903 4.904ZM510.037 454.735H405.088v34.814h104.949v-34.814Z" fill="#fff"/><path d="m510.037 489.561-104.949.267h-.266V454.418h.317l104.948.127h.191v.19l-.127 17.464-.114 17.362Zm0 0-.191-34.826.191.191-104.949.127.318-.318v34.826l-.267-.266 104.898.266Z" fill="#002"/><path d="M417.434 466.09h-2.058l-.406 1.105a.489.489 0 0 1-.445.292h-.152a.47.47 0 0 1-.28-.61l1.867-4.978a.485.485 0 0 1 .712-.215c.079.053.14.127.177.215l1.867 4.978a.461.461 0 0 1-.011.364.463.463 0 0 1-.268.246h-.152a.458.458 0 0 1-.432-.292l-.419-1.105Zm-.343-.927-.686-1.816-.686 1.816h1.372ZM423.263 465.023v2.02a.44.44 0 0 1-.444.444.444.444 0 0 1-.445-.444v-2.02a.86.86 0 0 0-.876-.864.863.863 0 0 0-.606.254.861.861 0 0 0-.245.61v2.02a.163.163 0 0 1 0 .076.455.455 0 0 1-.902-.076v-3.328a.455.455 0 0 1 .7-.384.44.44 0 0 1 .164.193c.269-.173.582-.265.902-.266a1.767 1.767 0 0 1 1.752 1.765ZM428.445 465.023v2.02a.44.44 0 0 1-.444.444.444.444 0 0 1-.445-.444v-2.02a.86.86 0 0 0-.876-.864.863.863 0 0 0-.606.254.861.861 0 0 0-.245.61v2.02a.163.163 0 0 1 0 .076.455.455 0 0 1-.902-.076v-3.328a.455.455 0 0 1 .7-.384.44.44 0 0 1 .164.193c.269-.173.582-.265.902-.266a1.766 1.766 0 0 1 1.752 1.765ZM430.49 466.865a2.07 2.07 0 0 1-.584-1.486 2.152 2.152 0 0 1 1.241-1.948c.249-.111.518-.17.791-.173a1.882 1.882 0 0 1 1.41.647c.384.395.598.924.597 1.474a2.03 2.03 0 0 1-.597 1.486 1.835 1.835 0 0 1-1.41.648 1.948 1.948 0 0 1-1.448-.648Zm.343-1.486c-.013.328.096.649.305.902a1.113 1.113 0 0 0 .8.304 1.12 1.12 0 0 0 .788-.304c.216-.251.333-.571.33-.902a1.278 1.278 0 0 0-.33-.877 1.182 1.182 0 0 0-.788-.317c-.297 0-.583.114-.8.317a1.278 1.278 0 0 0-.305.877ZM437.12 463.728a.47.47 0 0 1-.47.457h-.165v2.362a.469.469 0 0 1 .457.47.457.457 0 0 1-.457.47.94.94 0 0 1-.94-.94v-2.362h-.33a.467.467 0 0 1-.393-.464.471.471 0 0 1 .393-.463h.254v-1.27a.451.451 0 0 1 .134-.337.453.453 0 0 1 .336-.133.468.468 0 0 1 .47.47v1.27h.203a.465.465 0 0 1 .469.281.47.47 0 0 1 .039.189ZM441.921 465.379v1.664a.434.434 0 0 1-.13.314.438.438 0 0 1-.314.13.457.457 0 0 1-.432-.368 1.945 1.945 0 0 1-2.54-.254 2.117 2.117 0 0 1-.572-1.486 2.105 2.105 0 0 1 .572-1.486 1.974 1.974 0 0 1 1.435-.635c.404.009.797.137 1.13.368a.46.46 0 0 1 .432-.368.457.457 0 0 1 .445.457l-.026 1.664Zm-.889 0a1.27 1.27 0 0 0-.33-.864 1.066 1.066 0 0 0-1.221-.266 1.03 1.03 0 0 0-.354.266c-.21.238-.323.546-.318.864a1.27 1.27 0 0 0 .318.876 1.081 1.081 0 0 0 .787.33 1.14 1.14 0 0 0 .788-.33c.218-.239.336-.553.33-.876ZM445.49 463.728a.48.48 0 0 1-.483.457h-.203v2.362a.474.474 0 0 1 .328.802.453.453 0 0 1-.328.138.94.94 0 0 1-.94-.94v-2.362h-.241a.476.476 0 0 1-.503-.266.465.465 0 0 1 .122-.556.47.47 0 0 1 .381-.105h.241v-1.27a.472.472 0 0 1 .47-.47.451.451 0 0 1 .337.133.457.457 0 0 1 .133.337v1.27h.203a.482.482 0 0 1 .483.47ZM447.916 462.204a.456.456 0 0 1-.914 0v-.166a.456.456 0 0 1 .914 0v.166Zm0 1.524v3.302a.456.456 0 0 1-.914 0v-3.302a.457.457 0 1 1 .914 0ZM449.732 466.865a2.07 2.07 0 0 1-.584-1.486c0-.548.209-1.075.584-1.474a1.978 1.978 0 0 1 1.448-.647 1.882 1.882 0 0 1 1.41.647c.384.395.598.924.597 1.474a2.03 2.03 0 0 1-.597 1.486 1.835 1.835 0 0 1-1.41.648 1.935 1.935 0 0 1-1.448-.648Zm.331-1.486c-.006.327.101.645.304.902.221.203.513.312.813.304a1.074 1.074 0 0 0 .775-.304c.224-.246.342-.57.33-.902a1.268 1.268 0 0 0-.33-.877 1.13 1.13 0 0 0-.775-.317 1.27 1.27 0 0 0-.813.317 1.359 1.359 0 0 0-.304.877ZM458.153 465.023v2.02a.444.444 0 0 1-.889 0v-2.02a.865.865 0 0 0-.876-.863.843.843 0 0 0-.79.534.84.84 0 0 0-.061.329v2.02a.163.163 0 0 1 0 .076.478.478 0 0 1-.167.261.473.473 0 0 1-.291.107.434.434 0 0 1-.314-.13.438.438 0 0 1-.13-.314v-3.328a.432.432 0 0 1 .126-.323.45.45 0 0 1 .567-.063.455.455 0 0 1 .171.195c.269-.173.581-.265.901-.266a1.766 1.766 0 0 1 1.753 1.765ZM413.433 474.155l6.947-.127 6.948-.063 13.882-.064 13.895.064 6.935.063 6.947.127-6.947.114-6.935.077-13.895.05-13.882-.05-6.948-.077-6.947-.114ZM473.318 474.155c2.185-.101 4.382-.152 6.579-.19 2.197-.038 4.395 0 6.592-.064 2.197-.063 4.395 0 6.592.064 2.197.063 4.394.089 6.592.19-2.198.102-4.395.14-6.592.191-2.197.05-4.395 0-6.592 0h-6.592c-2.197 0-4.369-.089-6.579-.191ZM413.433 481.42c3.264-.101 6.528-.152 9.792-.19l9.78-.064 9.793.064c3.264 0 6.528.089 9.792.19-3.264.102-6.528.14-9.792.178l-9.793.063-9.78-.063c-3.251-.038-6.528-.076-9.792-.178ZM459.474 481.42c2.248-.102 4.509-.152 6.757-.19 2.248-.039 4.509 0 6.757-.064 2.248-.063 4.509 0 6.769.064 2.261.063 4.509.088 6.757.19-2.248.102-4.508.14-6.757.178-2.248.038-4.508 0-6.769.063-2.261.064-4.509 0-6.757-.063-2.248-.064-4.509-.076-6.757-.178Z" fill="#002"/><path d="M510.037 460.641a5.906 5.906 0 1 0 0-11.813 5.906 5.906 0 0 0 0 11.813Z" fill="#CF89EE"/><path d="m512.927 452.796-.979-.979-4.904 4.903.979.979 4.904-4.903Z" fill="#fff"/><path d="m511.989 457.676.979-.979-4.904-4.903-.979.978 4.904 4.904ZM510.037 271.307H405.088v63.061h104.949v-63.061Z" fill="#fff"/><path d="m510.037 334.381-104.949.228h-.241v-.228l-.114-63.074v-.317h.317l104.949.127h.19v.19l-.152 63.074Zm0 0-.191-63.074.191.204-104.949.114.318-.318-.089 63.074-.229-.242 104.949.242Z" fill="#002"/><path d="M417.434 282.662h-2.058l-.406 1.105a.489.489 0 0 1-.445.292h-.152a.47.47 0 0 1-.28-.609l1.867-4.979a.485.485 0 0 1 .712-.215c.079.053.14.127.177.215l1.867 4.979a.455.455 0 0 1-.011.363.463.463 0 0 1-.268.246h-.152a.458.458 0 0 1-.432-.292l-.419-1.105Zm-.343-.927-.686-1.816-.686 1.816h1.372ZM423.263 281.595v2.02a.44.44 0 0 1-.444.444.444.444 0 0 1-.445-.444v-2.02a.848.848 0 0 0-.262-.607.856.856 0 0 0-.614-.244.839.839 0 0 0-.851.851v2.02a.163.163 0 0 1 0 .076.455.455 0 0 1-.902-.076v-3.328a.455.455 0 0 1 .7-.384.437.437 0 0 1 .164.194 1.67 1.67 0 0 1 .902-.267 1.775 1.775 0 0 1 1.752 1.765ZM428.445 281.595v2.02a.44.44 0 0 1-.444.444.444.444 0 0 1-.445-.444v-2.02a.848.848 0 0 0-.262-.607.856.856 0 0 0-.614-.244.839.839 0 0 0-.851.851v2.02a.163.163 0 0 1 0 .076.455.455 0 0 1-.902-.076v-3.328a.455.455 0 0 1 .7-.384.437.437 0 0 1 .164.194 1.67 1.67 0 0 1 .902-.267 1.775 1.775 0 0 1 1.752 1.765ZM430.49 283.437a2.06 2.06 0 0 1-.584-1.486c0-.548.209-1.075.584-1.473.184-.202.408-.363.657-.474a1.98 1.98 0 0 1 .791-.174 1.882 1.882 0 0 1 1.41.648c.384.394.598.923.597 1.473a2.03 2.03 0 0 1-.597 1.486 1.823 1.823 0 0 1-1.41.648 1.948 1.948 0 0 1-1.448-.648Zm.343-1.486c-.013.328.096.649.305.902a1.12 1.12 0 0 0 .8.317 1.13 1.13 0 0 0 .788-.317c.216-.251.333-.571.33-.902a1.273 1.273 0 0 0-.33-.876 1.266 1.266 0 0 0-.788-.318 1.268 1.268 0 0 0-.8.318 1.274 1.274 0 0 0-.305.876ZM437.12 280.3a.482.482 0 0 1-.47.47h-.165v2.349a.469.469 0 0 1 .457.47.457.457 0 0 1-.457.47.94.94 0 0 1-.94-.94v-2.349h-.33a.473.473 0 0 1-.457-.47.457.457 0 0 1 .457-.47h.254v-1.27a.454.454 0 0 1 .47-.47.468.468 0 0 1 .47.47v1.27h.203a.463.463 0 0 1 .469.281.47.47 0 0 1 .039.189ZM441.921 281.951v1.664a.444.444 0 0 1-.444.444.457.457 0 0 1-.432-.368 1.942 1.942 0 0 1-2.54-.254 2.221 2.221 0 0 1 0-2.972 1.905 1.905 0 0 1 2.54-.254.455.455 0 0 1 .432-.381.457.457 0 0 1 .444.457v1.664Zm-.889 0a1.27 1.27 0 0 0-.33-.864 1.063 1.063 0 0 0-.788-.343 1.014 1.014 0 0 0-.787.343c-.21.238-.323.546-.318.864a1.27 1.27 0 0 0 .318.876c.102.105.225.189.36.246.135.056.281.085.427.084a1.14 1.14 0 0 0 .788-.33c.218-.239.336-.553.33-.876ZM445.49 280.3a.482.482 0 0 1-.483.47h-.203v2.349a.474.474 0 0 1 .328.802.453.453 0 0 1-.328.138.94.94 0 0 1-.94-.94v-2.349h-.241a.47.47 0 0 1-.47-.47.454.454 0 0 1 .47-.47h.241v-1.27a.473.473 0 0 1 .908-.182c.023.058.034.12.032.182v1.27h.203a.482.482 0 0 1 .483.47ZM447.916 278.776a.456.456 0 0 1-.914 0v-.178a.455.455 0 0 1 .457-.457.456.456 0 0 1 .457.457v.178Zm0 1.536v3.29a.455.455 0 0 1-.457.457.455.455 0 0 1-.457-.457v-3.29a.456.456 0 0 1 .914 0ZM449.732 283.437a2.06 2.06 0 0 1-.584-1.486c0-.548.209-1.075.584-1.473a1.987 1.987 0 0 1 1.448-.648 1.882 1.882 0 0 1 1.41.648c.384.394.598.923.597 1.473a2.03 2.03 0 0 1-.597 1.486 1.823 1.823 0 0 1-1.41.648 1.935 1.935 0 0 1-1.448-.648Zm.331-1.486c-.006.327.101.645.304.902.22.207.511.32.813.317a1.078 1.078 0 0 0 .775-.317c.224-.246.342-.57.33-.902a1.264 1.264 0 0 0-.33-.876 1.195 1.195 0 0 0-.775-.318c-.3.007-.588.119-.813.318a1.354 1.354 0 0 0-.304.876ZM458.153 281.595v2.02a.444.444 0 0 1-.889 0v-2.02a.868.868 0 0 0-.876-.851.836.836 0 0 0-.606.246.838.838 0 0 0-.245.605v2.02a.163.163 0 0 1 0 .076.484.484 0 0 1-.458.368.446.446 0 0 1-.444-.444v-3.328a.432.432 0 0 1 .126-.323.45.45 0 0 1 .567-.063.458.458 0 0 1 .171.196c.269-.174.581-.266.901-.267a1.777 1.777 0 0 1 1.753 1.765ZM413.433 293.255l6.947-.127 6.948-.064 13.882-.063 13.895.063 6.935.064 6.947.127-6.947.114-6.935.064-13.895.063-13.882-.063-6.948-.064-6.947-.114ZM473.318 293.255c2.185-.102 4.382-.153 6.579-.191 2.197-.038 4.395 0 6.592 0h6.592c2.197 0 4.394.076 6.592.191-2.198.101-4.395.139-6.592.178-2.197.038-4.395 0-6.592.063-2.197.064-4.395 0-6.592-.063-2.197-.064-4.369-.089-6.579-.178ZM413.433 300.507c3.264-.102 6.528-.14 9.792-.178l9.78-.063 9.793.063c3.264 0 6.528.076 9.792.178a507.62 507.62 0 0 1-9.792.191h-19.573a509.67 509.67 0 0 1-9.792-.191ZM459.474 300.507c2.248-.102 4.509-.14 6.757-.178 2.248-.038 4.509 0 6.757-.063 2.248-.064 4.509 0 6.769.063 2.261.064 4.509.076 6.757.178-2.248.102-4.508.152-6.757.191-2.248.038-4.508 0-6.769 0h-6.757c-2.248 0-4.509-.089-6.757-.191ZM413.433 307.772l6.63-.114 6.63-.064 13.247-.063 13.247.051 6.63.076 6.617.114-6.617.127-6.63.064-13.247.063-13.247-.063-6.63-.064-6.63-.127ZM472.429 307.772c1.791-.102 3.569-.14 5.36-.178 1.791-.038 3.569 0 5.347 0h5.347c1.778 0 3.569.076 5.36.178a152.31 152.31 0 0 1-5.36.191c-1.791.038-3.569 0-5.347.063-1.778.064-3.569 0-5.347-.063-1.778-.064-3.569-.089-5.36-.191ZM413.433 315.037c1.689-.102 3.366-.14 5.08-.191 1.715-.05 3.366 0 5.081 0h5.08c1.715 0 3.366.089 5.08.191-1.676.102-3.353.152-5.08.191-1.727.038-3.353 0-5.08 0h-5.081c-1.727 0-3.391-.089-5.08-.191ZM439.94 315.037c3.315-.102 6.63-.14 9.945-.191H469.762c3.315 0 6.63.089 9.945.191-3.315.102-6.63.152-9.945.191H449.885c-3.315-.039-6.63-.089-9.945-.191ZM413.433 322.327c2.908-.101 5.817-.152 8.713-.19h17.426c2.908 0 5.804.089 8.712.19-2.908.102-5.804.153-8.712.191h-17.426c-2.896-.064-5.805-.114-8.713-.191ZM452.59 322.327c1.651-.101 3.302-.152 4.953-.19 1.651-.038 3.315 0 4.966 0h4.967c1.663 0 3.302.089 4.953.19-1.651.102-3.302.153-4.953.191-1.652.038-3.315 0-4.967 0h-4.966c-1.663 0-3.277-.114-4.953-.191Z" fill="#002"/><path d="M515.943 271.307a5.907 5.907 0 1 1-11.814.023 5.907 5.907 0 0 1 11.814-.023Z" fill="#CF89EE"/><path d="m512.978 269.355-.979-.979-4.904 4.903.979.979 4.904-4.903Z" fill="#fff"/><path d="m511.989 274.249.979-.979-4.903-4.904-.979.979 4.903 4.904ZM510.037 355.032H405.088v63.061h104.949v-63.061Z" fill="#fff"/><path d="m510.037 418.093-104.949.241h-.241v-.241l-.114-63.061v-.317h.317l104.949.114h.19v.203l-.152 63.061Zm0 0-.191-63.061.191.191-104.949.114.318-.305-.089 63.061-.229-.241 104.949.241Z" fill="#002"/><path d="M417.434 366.374h-2.058l-.406 1.105a.489.489 0 0 1-.445.293h-.152a.473.473 0 0 1-.28-.61l1.867-4.979a.483.483 0 0 1 .889 0l1.867 4.979a.455.455 0 0 1-.011.363.463.463 0 0 1-.268.247h-.152a.459.459 0 0 1-.432-.293l-.419-1.105Zm-.343-.927-.686-1.816-.686 1.816h1.372ZM423.263 365.308v2.019a.44.44 0 0 1-.13.314.441.441 0 0 1-.628 0 .441.441 0 0 1-.131-.314v-2.019a.85.85 0 0 0-.262-.607.86.86 0 0 0-.614-.244.838.838 0 0 0-.851.851v2.019a.266.266 0 0 1 0 .089.456.456 0 0 1-.778.207.453.453 0 0 1-.124-.296v-3.328a.45.45 0 0 1 .135-.319.435.435 0 0 1 .322-.125.428.428 0 0 1 .407.254c.27-.169.583-.258.902-.254a1.764 1.764 0 0 1 1.752 1.753ZM428.445 365.308v2.019a.44.44 0 0 1-.13.314.441.441 0 0 1-.628 0 .441.441 0 0 1-.131-.314v-2.019a.85.85 0 0 0-.262-.607.86.86 0 0 0-.614-.244.838.838 0 0 0-.851.851v2.019a.266.266 0 0 1 0 .089.456.456 0 0 1-.778.207.453.453 0 0 1-.124-.296v-3.328a.45.45 0 0 1 .135-.319.436.436 0 0 1 .323-.125.427.427 0 0 1 .406.254c.27-.169.583-.258.902-.254a1.762 1.762 0 0 1 1.752 1.753ZM430.49 367.162a2.12 2.12 0 0 1-.584-1.499c0-.547.209-1.075.584-1.473a2 2 0 0 1 1.448-.635 1.86 1.86 0 0 1 1.41.635c.384.394.598.923.597 1.473a2.082 2.082 0 0 1-.597 1.499 1.866 1.866 0 0 1-1.41.635 2.002 2.002 0 0 1-1.448-.635Zm.343-1.499c-.013.328.096.649.305.902a1.12 1.12 0 0 0 .8.317 1.13 1.13 0 0 0 .788-.317 1.36 1.36 0 0 0 .33-.902 1.275 1.275 0 0 0-.33-.876 1.278 1.278 0 0 0-.788-.318c-.295.01-.578.122-.8.318a1.274 1.274 0 0 0-.305.876ZM437.12 364.012a.484.484 0 0 1-.47.47h-.165v2.299a.477.477 0 0 1 .329.146.476.476 0 0 1 .128.337.45.45 0 0 1-.282.422.456.456 0 0 1-.175.035.936.936 0 0 1-.664-.276.936.936 0 0 1-.276-.664v-2.35h-.33a.467.467 0 0 1-.457-.47.447.447 0 0 1 .28-.426.447.447 0 0 1 .177-.031h.254v-1.27a.454.454 0 0 1 .47-.47.47.47 0 0 1 .47.47v1.27h.203a.456.456 0 0 1 .508.508ZM441.921 365.663v1.664a.447.447 0 0 1-.399.427.445.445 0 0 1-.477-.338c-.334.227-.727.35-1.131.356a2.021 2.021 0 0 1-1.435-.61 2.158 2.158 0 0 1-.571-1.499 2.12 2.12 0 0 1 .571-1.486 1.94 1.94 0 0 1 2.54-.254.445.445 0 0 1 .432-.368.453.453 0 0 1 .411.274.452.452 0 0 1 .034.17l.025 1.664Zm-.889 0a1.268 1.268 0 0 0-.33-.863 1.052 1.052 0 0 0-.788-.343 1.014 1.014 0 0 0-.787.343 1.345 1.345 0 0 0 0 1.74 1.05 1.05 0 0 0 .787.33 1.082 1.082 0 0 0 .788-.33c.218-.24.336-.553.33-.877ZM445.49 364.012a.482.482 0 0 1-.483.47h-.203v2.299a.477.477 0 0 1 .329.146.479.479 0 0 1-.005.66.468.468 0 0 1-.324.134.936.936 0 0 1-.664-.276.936.936 0 0 1-.276-.664v-2.35h-.241a.468.468 0 0 1-.47-.47.445.445 0 0 1 .47-.457h.241v-1.27a.47.47 0 0 1 .47-.47.451.451 0 0 1 .337.134.453.453 0 0 1 .133.336v1.27h.203a.477.477 0 0 1 .355.146.467.467 0 0 1 .128.362ZM447.916 362.488a.455.455 0 0 1-.457.457.455.455 0 0 1-.457-.457v-.178a.456.456 0 0 1 .914 0v.178Zm0 1.537v3.289a.457.457 0 1 1-.914 0v-3.289a.457.457 0 1 1 .914 0ZM449.732 367.162a2.12 2.12 0 0 1-.584-1.499c0-.547.209-1.075.584-1.473a1.967 1.967 0 0 1 1.448-.635 1.86 1.86 0 0 1 1.41.635c.384.394.598.923.597 1.473a2.082 2.082 0 0 1-.597 1.499 1.866 1.866 0 0 1-1.41.635 1.97 1.97 0 0 1-1.448-.635Zm.33-1.499a1.41 1.41 0 0 0 .305.902c.22.207.511.321.813.317a1.078 1.078 0 0 0 .775-.317c.224-.246.342-.57.33-.902a1.266 1.266 0 0 0-.33-.876 1.197 1.197 0 0 0-.775-.318c-.3.007-.588.119-.813.318a1.36 1.36 0 0 0-.305.876ZM458.153 365.308v2.019a.444.444 0 0 1-.889 0v-2.019a.869.869 0 0 0-.545-.791.87.87 0 0 0-.331-.06.835.835 0 0 0-.851.851v2.019a.266.266 0 0 1 0 .089.475.475 0 0 1-.458.356.443.443 0 0 1-.444-.445v-3.328a.425.425 0 0 1 .126-.318.441.441 0 0 1 .318-.126.445.445 0 0 1 .42.254 1.66 1.66 0 0 1 .901-.254 1.764 1.764 0 0 1 1.753 1.753ZM413.433 376.967l6.947-.127 6.948-.063 13.882-.064 13.895.064 6.935.063 6.947.127-6.947.114-6.935.077-13.895.05-13.882-.063-6.948-.064-6.947-.114ZM473.318 376.942c2.185-.102 4.382-.153 6.579-.191 2.197-.038 4.395 0 6.592-.063 2.197-.064 4.395 0 6.592.063 2.197.064 4.394.089 6.592.191-2.198.101-4.395.139-6.592.19-2.197.051-4.395 0-6.592 0h-6.592c-2.197 0-4.369-.063-6.579-.19ZM413.433 384.232c3.264-.102 6.528-.152 9.792-.19h19.573c3.264 0 6.528.088 9.792.19-3.264.102-6.528.14-9.792.178l-9.793.063-9.78-.063c-3.251-.038-6.528-.076-9.792-.178ZM459.474 384.232c2.248-.102 4.509-.152 6.757-.19 2.248-.039 4.509 0 6.757 0h6.769c2.261 0 4.509.088 6.757.19-2.248.102-4.508.14-6.757.178-2.248.038-4.508 0-6.769.063-2.261.064-4.509 0-6.757-.063-2.248-.064-4.509-.076-6.757-.178ZM413.433 391.484l6.63-.114 6.63-.063 13.247-.064 13.247.064 6.63.063 6.617.114-6.617.127-6.63.064-13.247.063-13.247-.063-6.63-.064-6.63-.127ZM472.429 391.484c1.791-.089 3.569-.139 5.36-.177 1.791-.039 3.569 0 5.347-.064 1.778-.063 3.569 0 5.347.064 1.778.063 3.569.076 5.36.177a149.93 149.93 0 0 1-5.36.191c-1.791.038-3.569 0-5.347 0h-5.347c-1.778 0-3.569-.089-5.36-.191ZM413.433 398.749c1.689-.101 3.366-.139 5.08-.178 1.715-.038 3.366 0 5.081 0h5.08c1.715 0 3.366.077 5.08.178a130.78 130.78 0 0 1-5.08.191c-1.727.038-3.353 0-5.08.063-1.728.064-3.353 0-5.081-.063-1.727-.064-3.391-.089-5.08-.191ZM439.94 398.749c3.315-.101 6.63-.139 9.945-.178H469.762c3.315 0 6.63.077 9.945.178-3.315.102-6.63.153-9.945.191l-9.945.063-9.932-.063c-3.315-.038-6.63-.089-9.945-.191ZM413.433 406.014c2.908-.101 5.817-.139 8.713-.178l8.713-.063h8.713c2.908 0 5.804.089 8.712.19-2.908.102-5.804.153-8.712.191h-17.426c-2.896 0-5.805 0-8.713-.14ZM452.59 406.014c1.651-.101 3.302-.139 4.953-.178 1.651-.038 3.315 0 4.966-.063 1.652-.064 3.303 0 4.967 0 1.663 0 3.302.089 4.953.19-1.651.102-3.302.153-4.953.191-1.652.038-3.315 0-4.967 0h-4.966c-1.663 0-3.277 0-4.953-.14Z" fill="#002"/><path d="M510.037 360.938a5.906 5.906 0 1 0 0-11.813 5.906 5.906 0 0 0 0 11.813Z" fill="#CF89EE"/><path d="m512.984 353.074-.979-.979-4.904 4.904.979.978 4.904-4.903Z" fill="#fff"/><path d="m511.995 357.967.979-.979-4.903-4.904-.979.979 4.903 4.904Z" fill="#fff"/><path d="M288.785 167.921h-.952v-7.315h111.032v.952h-110.08v6.363Z" fill="#CF89EE"/><path d="M290.093 167.832a1.793 1.793 0 0 1-1.105 1.655 1.797 1.797 0 0 1-1.952-.388 1.797 1.797 0 0 1-.388-1.952 1.795 1.795 0 0 1 1.655-1.105 1.79 1.79 0 0 1 1.79 1.79ZM398.776 162.866a1.791 1.791 0 1 0 0-3.582 1.791 1.791 0 0 0 0 3.582ZM243.29 462.826h-.952v-7.316h156.527v.953H243.29v6.363Z" fill="#CF89EE"/><path d="M244.598 462.737a1.792 1.792 0 0 1-3.547.349 1.794 1.794 0 0 1 1.757-2.14 1.79 1.79 0 0 1 1.79 1.791ZM398.776 457.771a1.791 1.791 0 1 0 0-3.582 1.791 1.791 0 0 0 0 3.582ZM301.804 295.262h-.953v-23.015h98.014v.953h-97.061v22.062Z" fill="#CF89EE"/><path d="M301.321 296.963a1.79 1.79 0 1 0 .001-3.58 1.79 1.79 0 0 0-.001 3.58ZM398.776 274.508a1.791 1.791 0 1 0 0-3.582 1.791 1.791 0 0 0 0 3.582ZM230.691 378.948h-.953v-23.001h169.127v.953H230.691v22.048Z" fill="#CF89EE"/><path d="M231.999 378.86a1.786 1.786 0 0 1-1.106 1.654 1.786 1.786 0 0 1-1.951-.388 1.79 1.79 0 1 1 3.057-1.266ZM398.776 358.208a1.791 1.791 0 1 0 0-3.582 1.791 1.791 0 0 0 0 3.582Z" fill="#CF89EE"/><path d="M161.381 539.032c-2.845.94-84.042.178-87.116-1.816-1.181-.737-1.765-12.574-2.057-26.901v-.445c0-2.959 3.581-52.467 3.581-52.467l53.078.342-3.976 43.387-.292 8.637v.889s30.953 14.187 34.09 16.74c3.137 2.553 5.537 10.719 2.692 11.634Z" fill="#F7A9A0"/><path d="M72.398 517.745c.33 10.796.89 18.874 1.867 19.471 3.061 1.981 84.271 2.756 87.116 1.816 2.845-.94.42-9.094-2.718-11.622-1.206-.99-6.566-3.708-12.701-6.668 3.176 3.455 4.789 7.265-3.734 7.265-15.139 0-41.583-2.464-69.83-10.262Z" fill="#002"/><path d="M121.056 539.26c-22.037-.304-45.178-1.003-46.79-2.044-.966-.597-1.538-8.675-1.868-19.471a264.779 264.779 0 0 0 15.635 3.81l33.023 17.705Z" fill="#002"/><path d="M124.599 509.032H72.208s8.268-136.574 7.798-138.962c-.572-3.061-4.026-16.879-8.624-34.94l-4.61-17.997c-4.357-16.994-9.17-35.563-13.35-51.719a10421.96 10421.96 0 0 1-11.189-43.018h49.534s5.767 18.315 13.044 42.142c11.863 38.712 27.714 91.993 29.276 104.948 2.566 20.919-9.488 139.546-9.488 139.546Z" fill="#F7A9A0"/><path d="M98.334 539.032c-2.845.94-84.043.178-87.117-1.816-1.18-.737-1.752-12.574-2.044-26.901v-.445c0-2.959 2.54-52.467 2.54-52.467l51.731.342-1.486 41.736v1.651l-.305 8.637v.889s30.953 14.187 34.102 16.74c3.15 2.553 5.424 10.719 2.579 11.634Z" fill="#F7A9A0"/><path d="M9.35 517.745c.343 10.796.902 18.874 1.867 19.471 3.074 1.981 84.272 2.756 87.117 1.816 2.845-.94.419-9.094-2.706-11.622a117.985 117.985 0 0 0-12.7-6.668c3.187 3.455 4.788 7.265-3.735 7.265-15.14 0-41.52-2.464-69.843-10.262Z" fill="#002"/><path d="M90.18 222.396s-1.144 23.713-6.567 42.497a79.045 79.045 0 0 1-1.41 4.547 87.744 87.744 0 0 0-14.288 7.342s-2.439 90.672-2.3 96.349c.496 21.046-4.063 136.816-4.063 136.816l-52.202.228s5.741-129.321 5.665-137.044c-.114-12.396 2.832-67.188 5.08-107.145a314.981 314.981 0 0 1 5.462-43.603l64.623.013Z" fill="#F7A9A0"/><path d="M91.793 222.396s40.3 124.559 42.675 139.711c1.357 8.3 2.29 16.664 2.794 25.059 0 0-35.042 17.642-58.945 17.045-23.903-.597-66.198-10.072-66.198-10.072s6.592-125.054 6.744-126.375c.153-1.321-8.776-15.368 4.674-45.66l68.256.292Z" fill="#002"/><path d="M74.29 365.511c0 12.853-.24 25.694-.609 38.535h-.229l.102-14.086c0-8.141.089-16.295 0-24.424-.076-4.077-.127-8.128-.559-12.155l-1.27-12.155-2.299-24.373-4.547-48.645-2.21-24.335-1.854-21.591 2.299 21.591 2.502 24.272 4.788 48.619 2.286 24.323 1.143 12.155c.407 4.064.407 8.166.458 12.269Zm50.601 7.392-.571-11.291a33.768 33.768 0 0 0-.775-5.627c-.356-1.854-.775-3.696-1.181-5.538-3.366-14.695-7.252-29.212-11.075-43.831-3.823-14.619-7.888-29.085-11.965-43.59l-6.147-21.756-5.474-18.836 22.684 84.449c3.899 14.53 7.786 29.098 11.304 43.729.419 1.842.863 3.671 1.27 5.513.434 1.818.71 3.671.825 5.537l.712 11.266 1.27 19.509h.063l-.94-19.534ZM26.649 230.474a126.52 126.52 0 0 1 2.286-8.345h-.063c-.915 2.731-1.702 5.487-2.439 8.269a101.015 101.015 0 0 0-2.362 11.43 64.09 64.09 0 0 0-.75 11.673 33.028 33.028 0 0 0 2.236 11.431l-2.286 35.372-2.109 35.486-2.044 35.474-1.27 24.132h.203l1.689-24.055 2.311-35.474 2.223-35.474 1.969-35.512V264.716a32.9 32.9 0 0 1-2.324-11.241 65.448 65.448 0 0 1 .596-11.57 105.767 105.767 0 0 1 2.134-11.431Zm82.023 138.949a65.239 65.239 0 0 0-.851-11.761c-2.73-15.445-5.893-30.788-8.89-46.169l-9.577-46.015-4.915-22.989-4.42-20.131 8.65 43.272 9.347 46.067c3.137 15.355 6.351 30.698 9.17 46.092a63.584 63.584 0 0 1 .966 11.646l.215 11.749c.085 5.859.144 11.723.178 17.591h.14c.076-5.86.131-11.715.165-17.566-.051-3.95-.127-7.862-.178-11.786Zm-17.032-7.291a88.458 88.458 0 0 0-1.156-12.015l-1.65-11.913-3.405-23.815-7.112-47.603-3.645-23.776-3.29-20.69h-.063l2.87 20.753 3.379 23.827 6.896 47.616 3.48 23.815 1.702 11.9a94.39 94.39 0 0 1 1.27 11.927c.254 8.001.369 16.028.508 24.043l.292 16.841h.153c0-13.653.013-27.269-.229-40.91Zm-35.283-10.897-.483-11.977-.965-23.942-2.108-47.908-1.156-23.928-1.105-21.262h-.076l.685 21.274.877 23.954 1.892 47.896 1.042 23.929.508 11.977.14 2.984v8.993l-.255 23.954-.101 14.834h.19l.394-14.86.546-23.954.127-5.995v-3.01l-.152-2.959Zm-18.15-99.271c0-3.607.216-7.202.394-10.821.355-6.326.847-12.646 1.473-18.963a482.346 482.346 0 0 0-1.88 18.937c-.266 3.62-.444 7.214-.533 10.847a56.991 56.991 0 0 0 .546 10.885l-.368 35.943-.242 36.033-.127 17.985c0 3.01-.127 6.007-.254 9.005l-.393 9.005-1.105 28.006h.14l1.612-27.943.496-8.992c.14-3.01.368-6.008.343-9.005l.165-18.023.267-36.032.203-36.059v-.076a57.97 57.97 0 0 1-.737-10.732Z" fill="#455A64"/><path d="M42.398 157.532a2.821 2.821 0 0 0 1.27 2.705c.763.555 1.56 1.06 2.388 1.512.138-2.91.43-5.81.877-8.688.444-3.328 1.105-6.554 1.854-9.818h.089c-.508 3.328-.89 6.681-1.27 10.021-.356 2.922-.483 5.906-.864 8.815.864.444 1.74.851 2.63 1.206 0-1.016.114-2.044.177-3.073.216-3.087.711-6.109 1.092-9.17 0-.077.115-.077.102 0-.33 2.984-.381 6.033-.559 9.03 0 1.169-.114 2.324-.165 3.48.61.241 1.27.47 1.829.673l1.27.407c.152-2.02.445-4.052.648-6.021.343-3.2.902-6.35 1.27-9.551a.088.088 0 0 1 .04-.111.087.087 0 0 1 .042-.011c.015 0 .03.004.042.011a.09.09 0 0 1 .032.028.09.09 0 0 1 .009.083c-.368 3.176-.52 6.351-.825 9.577-.191 2.045-.293 4.153-.509 6.223a52.06 52.06 0 0 0 16.83 1.969 79.26 79.26 0 0 0 9.792-1.054c.787-.14 2.781-.534 4.763-.953.089-.965.19-1.93.266-2.857.153-2.134.445-4.281.546-6.414h.09c0 2.146.076 4.292 0 6.439 0 .864-.064 1.753-.115 2.654l1.981-.444c0-4.052.597-8.129.877-12.142 0-.102.14-.089.14 0-.09 3.95 0 7.976-.255 11.951.437-.09.863-.226 1.27-.406 1.017-.661 1.436-16.651 1.614-20.322.355-6.947 1.054-14.174-.648-20.969a20.694 20.694 0 0 0-11.253-14.162c-2.77-1.359-6.11-1.397-9.158-1.511a19.041 19.041 0 0 0-9.094 1.994 18.788 18.788 0 0 0-7.163 5.284 35.465 35.465 0 0 0-4.458 8.293 71.773 71.773 0 0 0-3.074 9.602c-1.676 6.681-2.629 13.527-3.632 20.322-.267 1.765-.635 3.582-.788 5.398Z" fill="#002"/><path d="M78.825 162.295c25.186 22.188 48.568 46.536 50.524 59.085 2.693 17.362-7.95 22.303-12.701 22.404-13.043.28-37.353-52.34-45.825-72.395-8.255-19.585 2.477-13.997 8.002-9.094Z" fill="#CF89EE"/><path opacity=".1" d="M119.214 243.327c-.825.251-1.678.396-2.54.432-13.044.279-37.354-52.341-45.825-72.396-3.963-9.449-3.582-13.018-1.423-13.666l49.788 85.63Z" fill="#002"/><path d="m22.191 225.355 70.923 1.156-5.55-21.223a22.27 22.27 0 0 0 3.187-18.518c-1.702-6.249-9.767-15.623-14.72-21.592-12.054-14.454-22.52-7.964-25.86-4.153-12.764 14.199-27.98 64.33-27.98 64.33Z" fill="#fff"/><path d="M55.646 156.922s6.947 18.467 9.665 22.684c2.718 4.217 10.72 11.774 10.72 11.774s.927-10.897 0-17.121c-.928-6.223-6.211-15.101-6.211-15.101a13.255 13.255 0 0 1 3.734 2.934c6.008 6.121 16.511 18.162 18.023 26.392a22.026 22.026 0 0 1-3.226 16.651l7.989 25.517-11.19 3.48-5.563-6.541-5.69 7.252-56.736-7.913 9.437-17.781s13.616-35.08 18.9-42.752c6.147-8.776 10.148-9.475 10.148-9.475Z" fill="#CF89EE"/><path d="M68.588 204.03a62.385 62.385 0 0 1 9.12-.152c1.51.101 2.997.279 4.495.495.75.102 1.5.178 2.248.254a9.827 9.827 0 0 0 2.363 0s.089.102 0 .114a16.16 16.16 0 0 1-2.197.356c-.724.045-1.45.045-2.172 0-1.537-.101-3.061-.267-4.585-.368-3.1-.229-6.186-.445-9.285-.445-.127 0-.14-.241.013-.254ZM61.691 208.018a66.157 66.157 0 0 1 7.329-1.702 45.41 45.41 0 0 1 3.734-.457l1.803-.114h1.982c.063 0 .089.101 0 .101-.61 0-1.27.229-1.842.318l-1.854.292c-1.27.191-2.54.407-3.709.584-2.54.369-4.953.75-7.417 1.207a.113.113 0 0 1-.085-.025.113.113 0 0 1-.018-.161.118.118 0 0 1 .077-.043Z" fill="#002"/><path d="M57.106 157.697c.178 1.27 5.398 10.046 11.177 10.339 1.88.089 2.832-10.161 2.832-10.161l.242-.75 3.404-10.364-11.685-9.208-1.702-1.27s-.75 2.896-1.639 6.516c0 .165-.076.343-.127.52l-.152.585c-.14.546-.28 1.092-.407 1.638-.127.546-.203.826-.292 1.27-.089.445-.177.877-.28 1.27a69.687 69.687 0 0 0-1.37 9.615Z" fill="#F7A9A0"/><path d="M59.748 142.837a21.864 21.864 0 0 0 11.609 14.288l3.404-10.364-11.685-9.208-1.702-1.27s-.737 2.934-1.626 6.554Z" fill="#002"/><path d="M92.186 134.162c-1.27 19.128-12.828 20.538-16.943 20.322-3.81-.242-16.511-1.563-17.21-20.703-.698-19.14 8.535-24.627 17.134-24.513 8.599.114 18.264 5.779 17.02 24.894Z" fill="#F7A9A0"/><path d="M88.948 133.4a13.13 13.13 0 0 1-1.182-.622 2.11 2.11 0 0 1-1.08-.851.7.7 0 0 1 .23-.801 1.699 1.699 0 0 1 1.714.077c.57.245 1.025.7 1.27 1.27a.725.725 0 0 1-.952.927ZM75.612 131.812c.457.064.876 0 1.27.077a2.21 2.21 0 0 0 1.435-.077.656.656 0 0 0 .216-.8 1.678 1.678 0 0 0-1.499-.825 2.541 2.541 0 0 0-1.74.419.736.736 0 0 0 .318 1.206ZM77.67 135.254s-.115 0-.128.089c-.28 1.27-.813 2.68-2.07 2.807v.076c1.448.165 2.134-1.727 2.197-2.972Z" fill="#002"/><path d="M76.882 133.641c-1.994-.673-3.188 3.366-1.347 3.988 1.842.623 3.01-3.416 1.347-3.988Z" fill="#002"/><path d="M76.018 133.616c-.42.127-.876.432-1.27.343-.394-.089-.75-.623-.953-1.131h-.076a1.551 1.551 0 0 0 .61 2.02c.724.33 1.473-.203 1.892-.915.038-.114-.025-.355-.203-.317ZM85.29 136.626s.089.089.076.14c-.356 1.27-.559 2.756.483 3.467v.064c-1.372-.547-1.093-2.528-.56-3.671Z" fill="#002"/><path d="M86.75 135.623c2.083.355 1.27 4.47-.71 4.14-1.982-.33-1.017-4.471.71-4.14Z" fill="#002"/><path d="M87.563 136.042c.28.292.508.749.902.863.394.115.864-.254 1.27-.622-.14.788-.572 1.55-1.359 1.55s-1.08-.788-1.105-1.613c.013-.089.178-.293.292-.178ZM82.127 142.811s-.267 1.944-.52 2.833c0 .076-.242.063-.547 0a4.409 4.409 0 0 1-3.645-2.731.103.103 0 0 1 .006-.068.099.099 0 0 1 .047-.048.098.098 0 0 1 .067-.009.103.103 0 0 1 .058.036 6.454 6.454 0 0 0 3.518 2.185c.14-.216.356-3.341.495-3.315a8.056 8.056 0 0 1 1.88 1.016c.686-4.039.724-8.154 1.46-12.168a.13.13 0 0 1 .038-.09.13.13 0 0 1 .09-.037.13.13 0 0 1 .09.037.13.13 0 0 1 .037.09 66.957 66.957 0 0 1-1.016 13.171c-.14.521-1.766-.648-2.058-.902Z" fill="#002"/><path d="M81.035 145.288a5.336 5.336 0 0 1-2.426 1.143 2.249 2.249 0 0 1-1.422-.228c-.966-.483-.788-1.436-.42-2.185.193-.406.436-.786.724-1.13a6.822 6.822 0 0 0 3.544 2.4Z" fill="#002"/><path d="M78.609 146.431a2.249 2.249 0 0 1-1.422-.228c-.966-.483-.788-1.436-.42-2.185a2.45 2.45 0 0 1 1.842 2.413Z" fill="#FF9ABB"/><path d="M57.88 134.759a7.938 7.938 0 0 0 5.704-5.373 20.773 20.773 0 0 0 9.665-4.839c-.216.356-1.727 2.96-2.54 4.255 12.396.343 18.06-7.976 18.06-7.976a21.085 21.085 0 0 1 3.557 8.675s1.677-7.291-1.029-12.993a12.078 12.078 0 0 0-9.83-7.215 17.242 17.242 0 0 0-17.54 1.512c-9.564 6.757-6.046 23.954-6.046 23.954Z" fill="#002"/><path d="M80.197 128.789c-2.145.631-4.37.943-6.605.928a19.053 19.053 0 0 0 9.894-3.392 18.588 18.588 0 0 0 3.353-3.035 12.707 12.707 0 0 0 2.54-4.204c0-.114.216 0 .178 0a14.94 14.94 0 0 1-1.956 4.496 13.4 13.4 0 0 1-3.505 3.366 15.346 15.346 0 0 1-3.925 1.829" fill="#002"/><path d="M61.64 133.794s-3.238-6.541-6.147-5.474c-2.908 1.066-1.105 10.16 1.867 11.761a3.26 3.26 0 0 0 2.507.435 3.244 3.244 0 0 0 2.053-1.502l-.28-5.22Z" fill="#F7A9A0"/><path d="M56.077 130.898s-.076.063 0 .089a8.142 8.142 0 0 1 3.404 5.703 1.778 1.778 0 0 0-2.54-.89v.127a2.002 2.002 0 0 1 2.07 1.017c.325.609.58 1.252.762 1.917.077.204.445.153.407-.076v-.063c.47-2.807-1.118-7.075-4.103-7.824Z" fill="#002"/><path d="M121.996 195.635c-1.271-8.256-3.696-19.75-6.668-22.125s-14.48-10.847-17.782-11.939c-3.302-1.093-17.781-6.44-20.461-4.865-2.108 1.27.47 6.833 7.392 9.437a102.14 102.14 0 0 1 10.974 5.182c1.778.749 6.083 6.427 4.953 8.967-.66 1.499-4.992 3.302-7.697 2.108-2.705-1.193-3.442-6.528-6.554-9.017-3.111-2.49-8.547-2.121-8.89-.648-.343 1.473 1.511 2.146 4.343 7.113 1.83 3.187 2.033 10.884 6.16 16.371a95.424 95.424 0 0 1 5.703 10.097l28.527-10.681Z" fill="#F7A9A0"/><path d="M83.296 171.185a5.394 5.394 0 0 1-2.706-1.193 2.112 2.112 0 0 1-.622-1.093 2.157 2.157 0 0 1 0-.698c.01-.245.104-.478.267-.661 0 0 0-.101 0 0a3.092 3.092 0 0 1-.242.33c-.063.1-.114.206-.152.318a2.029 2.029 0 0 0-.114.673c.03.506.227.988.558 1.372a3.73 3.73 0 0 0 3.112 1.079s0-.127-.101-.127Z" fill="#002"/><path d="M115.328 173.51c-2.668-4.103-9.463-11.431-16.156-13.971-4.509-1.677-19.915 6.02-19.433 8.979.483 2.96 3.137 2.934 7.037 2.426 1.435-.178 8.89-2.972 10.25-1.397 1.867 2.248 4.292 9.996 4.292 9.996l14.01-6.033Z" fill="#F7A9A0"/><path d="M80.12 167.375c1.88-3.188 6.059-4.928 10.161-6.35 0 0 .102.076 0 .101-1.054.343-7.836 3.557-10.16 6.249.012.089-.026 0 0 0Z" fill="#002"/><path d="M115.328 173.51c-2.668-4.103-9.463-11.431-16.156-13.971-4.509-1.677-16.651 8.103-16.168 11.049.482 2.947 4.28 3.15 8.458 1.652 1.36-.483 5.868-3.734 7.176-2.172 1.867 2.261 6.44 7.862 6.44 7.862l10.25-4.42Z" fill="#F7A9A0"/><path d="M102.449 174.475c-.432-.648-.572-.864-1.016-1.511a29.147 29.147 0 0 0-1.372-1.867 6.038 6.038 0 0 0-1.397-1.448 3.038 3.038 0 0 0-1.867-.343c-1.45.339-2.814.979-4.001 1.879a12.6 12.6 0 0 1-6.35 1.906 4.324 4.324 0 0 1-1.74-.458 2.67 2.67 0 0 1-1.042-.813c-.965-1.6.203-3.454 1.397-4.762a28.173 28.173 0 0 1 8.192-5.729l2.185-1.041a6.49 6.49 0 0 1 2.654-.787c1.524 0 4.027 1.486 4.801 1.943 0 0 .102-.064 0-.089-.94-.572-3.277-2.451-5.74-2.299a7.507 7.507 0 0 0-2.54.889c-.852.368-1.69.775-2.541 1.27a34.14 34.14 0 0 0-4.648 2.82 14.2 14.2 0 0 0-3.81 3.658 4.277 4.277 0 0 0-.23 4.382 3.822 3.822 0 0 0 2.782 1.435c.64.089 1.29.089 1.93 0 1.431-.32 2.836-.745 4.205-1.27 1.27-.547 2.54-1.461 3.81-1.88a2.544 2.544 0 0 1 1.994.101 6.544 6.544 0 0 1 1.499 1.347c.93.893 1.78 1.866 2.54 2.908.305.127.47.038.305-.241Z" fill="#002"/><path d="M117.309 177.079c-.978-1.944-2.693-10.009-4.28-12.473-1.588-2.464-8.802-10.961-12.117-10.554-4.179.508.254 8.001 2.477 11.075 2.222 3.074 1.905 8.357 1.905 8.357l12.015 3.595Z" fill="#F7A9A0"/><path d="M105.256 174.373a11.978 11.978 0 0 1-.991 5.894 24.32 24.32 0 0 1-1.27 2.718 22.649 22.649 0 0 1-1.715 2.54 23.448 23.448 0 0 0-2.984 4.902 24.329 24.329 0 0 0-1.563 5.614 15.55 15.55 0 0 1 .66-5.944 17.987 17.987 0 0 1 2.884-5.321 27.622 27.622 0 0 0 3.074-4.878 17.794 17.794 0 0 0 1.905-5.525Z" fill="#002"/><path d="M115.391 243.162c-8.141-1.105-13.476-14.733-22.773-38.7-1.638-4.204 19.661-30.063 22.557-26.202 3.645 4.864 13.476 31.918 14.505 39.297 1.981 14.593-4.763 26.888-14.289 25.605Z" fill="#F7A9A0"/><path d="m93.914 209.581 28.933-20.614s10.059 29.936 6.439 41.913c-3.506 11.622-10.288 13.971-16.308 11.825-8.408-3.112-19.064-33.124-19.064-33.124Z" fill="#CF89EE"/><path d="M103.871 232.392c-1.092-1.779-2.083-3.62-3.048-5.462-.965-1.842-1.867-3.721-2.756-5.614a81.401 81.401 0 0 1-2.451-5.753 30.715 30.715 0 0 1-1.83-5.982c.346.977.745 1.936 1.195 2.87.419.953.863 1.892 1.27 2.832l2.641 5.64c.864 1.892 1.741 3.81 2.541 5.69.8 1.879 1.702 3.823 2.438 5.779ZM98.245 215.639c4.204-3.112 21.833-15.14 25.808-17.451.28-.165.445 0 .178.203-12.384 9.653-21.592 14.619-25.86 17.426a.116.116 0 0 1-.128-.042.115.115 0 0 1 .002-.136Z" fill="#002"/><path d="M48.05 161.025c-23.433 18.403-46.473 50.232-46.638 68.026-.178 17.566 5.944 15.864 7.62 15.749 10.619-.698 35.564-49.533 43.184-69.525 7.62-19.991 1.639-18.785-4.166-14.25Z" fill="#CF89EE"/><path d="m28.935 222.32 5.69-11.012c1.893-3.671 3.81-7.316 5.69-11.012 1.88-3.696 3.81-7.341 5.589-11.037 1.778-3.696 3.62-7.43 5.322-11.19-1.27 3.912-2.96 7.723-4.662 11.495-1.702 3.772-3.543 7.481-5.41 11.177a215.428 215.428 0 0 1-5.894 10.91c-2.082 3.594-4.115 7.163-6.325 10.669Z" fill="#002"/><path d="M48.71 184.052c.509-.737 1.004-1.398 1.512-2.083a25.6 25.6 0 0 1 1.613-2.02 5.417 5.417 0 0 1-.419 1.27 6.971 6.971 0 0 1-.686 1.143 5.884 5.884 0 0 1-.901.966c-.33.301-.708.545-1.118.724ZM55.34 157.354c-.71 4.915-1.523 9.818-2.349 14.708l-.254-.407c2.883.762 5.754 1.588 8.637 2.375l.482.14-.203.457c-.864 1.893-1.702 3.811-2.54 5.678l-.114-.534c3.048 2.668 6.134 5.271 9.144 7.977 3.01 2.705 6.046 5.372 9.005 8.128-3.188-2.54-6.35-5.08-9.436-7.62-3.087-2.541-6.199-5.208-9.298-7.799l-.254-.216.14-.305c.838-1.905 1.74-3.81 2.617-5.664l.266.597c-2.858-.839-5.74-1.651-8.598-2.54l-.318-.089v-.318c.99-4.852 1.981-9.729 3.074-14.568Z" fill="#002"/><path d="M71.319 160.25c1.6 1.664 2.718 2.858 4.28 4.56 1.562 1.701 3.124 3.391 4.648 5.143l.305.356-.406.254-2.998 1.893.09-.674c1.27 1.27 2.476 2.464 3.683 3.722l.165.165v.229c-.635 3.34-1.181 6.693-1.867 10.021-.686 3.327-1.334 6.68-2.083 9.995.406-3.378.901-6.744 1.422-10.161.52-3.416 1.105-6.706 1.639-10.059l.127.381c-1.27-1.27-2.452-2.54-3.671-3.734l-.381-.393.47-.28 3.023-1.816-.09.609c-1.51-1.74-2.971-3.543-4.444-5.309-1.474-1.765-2.49-3.086-3.912-4.902ZM77.047 195.876c.419 1.626.863 3.252 1.27 4.877.406 1.626.775 3.265 1.13 4.903.127 3.645.153 7.29.203 10.936.051 3.645 0 7.303 0 10.948a449.322 449.322 0 0 1-.495-10.936 392.61 392.61 0 0 1-.241-10.935 161.163 161.163 0 0 1-.966-4.928 360.994 360.994 0 0 0-.901-4.865ZM76.132 200.233a1.27 1.27 0 0 1-.952 1.181 1.272 1.272 0 0 1-.953-.229 1.207 1.207 0 0 1 .451-2.125c.165-.04.336-.043.502-.009a1.275 1.275 0 0 1 .952 1.182Zm0 0a.814.814 0 0 0-.33-.635.788.788 0 0 0-.622-.089.748.748 0 1 0 .622 1.346.787.787 0 0 0 .33-.622ZM77.555 210.787a1.273 1.273 0 0 1-.953 1.181 1.272 1.272 0 0 1-.952-.228 1.27 1.27 0 0 1-.458-.953 1.191 1.191 0 0 1 .91-1.169 1.28 1.28 0 0 1 .5-.025 1.274 1.274 0 0 1 .953 1.194Zm0 0a.812.812 0 0 0-.33-.635.71.71 0 0 0-1.118.635.713.713 0 0 0 1.118.623.791.791 0 0 0 .33-.623ZM78.05 220.44a1.27 1.27 0 0 1-.953 1.194 1.282 1.282 0 0 1-.97-.288 1.267 1.267 0 0 1-.452-.906 1.27 1.27 0 0 1 .457-.953 1.263 1.263 0 0 1 .965-.228 1.273 1.273 0 0 1 .953 1.181Zm0 0a.813.813 0 0 0-.33-.622.7.7 0 0 0-.623-.089.723.723 0 0 0-.495.711.71.71 0 0 0 .495.724.698.698 0 0 0 .622-.089.816.816 0 0 0 .331-.635Z" fill="#002"/><path d="m58.275 220.351 40.617 5.461 15.419-56.456-40.617-5.474-15.42 56.469Z" fill="#002"/><path d="m60.269 220.618 40.63 5.474 15.407-56.469-40.618-5.461-15.42 56.456Z" fill="#002"/><path d="M93.965 193.323a4.43 4.43 0 0 1-4.827 3.379 3.609 3.609 0 0 1-3.074-4.446 4.432 4.432 0 0 1 4.827-3.365 3.6 3.6 0 0 1 2.538 1.522 3.589 3.589 0 0 1 .535 2.91Z" fill="#fff"/><path d="M6.658 244.851c7.849 1.08 17.642-5.017 43.03-23.56 3.506-2.54-7.912-32.223-11.811-29.67-4.903 3.201-23.23 16.715-24.45 17.871-10.25 9.691-12.104 34.559-6.77 35.359Z" fill="#F7A9A0"/><path d="M28.783 200.525s7.24-10.161 12.7-14.302a44.125 44.125 0 0 1 19.522-7.9c7.621-1.117 26.787 1.436 27.015 7.088.204 5.08-19.267 1.511-19.267 1.511s20.449.394 19.572 6.604c-.876 6.211-23.243.737-23.243.737s21.008.877 19.052 7.125c-1.448 4.725-21.973.928-21.973.928s18.048.876 16.766 5.804c-1.423 5.436-20.602 3.112-20.602 3.112-5.372 11.964-12.815 15.47-18.416 17.324-1.32.444-11.126-28.031-11.126-28.031Z" fill="#F7A9A0"/><path d="M61.704 186.338c2.4 0 4.839-.102 7.24.076 2.4.178 4.788.432 7.163.826a41.182 41.182 0 0 1 9.081 2.413c-5.334-1.664-13.971-2.414-16.32-2.541-2.35-.127-4.776-.457-7.177-.635-.05-.05-.038-.139.013-.139ZM60.93 194.987c3.06.076 6.121 0 9.182.267 3.06.267 5.931.686 8.967 1.118.229 0 .14.139-.102.114-3.035-.305-5.88-.343-8.89-.61-3.01-.267-6.084-.66-9.132-.813-.09 0-.077-.076-.026-.076ZM58.91 202.29c4.695.016 9.377.514 13.97 1.486.23 0 .09.178-.152.14-4.648-.572-8.293-1.067-13.87-1.461-.024 0-.037-.165.052-.165Z" fill="#002"/><path d="m30.37 194.987 9.704 36.947S11.84 248.522 5.921 244.483c-5.919-4.039-.66-25.173 3.81-31.562 4.471-6.389 20.64-17.934 20.64-17.934Z" fill="#CF89EE"/><path d="M3.75 230.029c.19-1.905.406-3.81.736-5.69.353-1.89.88-3.744 1.575-5.537a28.968 28.968 0 0 1 2.629-5.157 24.485 24.485 0 0 1 3.67-4.484c2.757-2.66 5.661-5.162 8.7-7.493 3.024-2.337 6.11-4.598 9.31-6.681-2.946 2.426-5.918 4.814-8.89 7.265-2.972 2.451-5.83 4.915-8.523 7.621a27.936 27.936 0 0 0-6.35 9.233 50.136 50.136 0 0 0-2.858 10.923ZM32.492 232.684c-1.436-5.081-6.541-25.758-7.329-30.292 0-.318.153-.407.254-.089 4.725 14.974 6.147 25.338 7.29 30.317.026.127-.114.191-.215.064Z" fill="#002"/></svg>